<svg xmlns="http://www.w3.org/2000/svg" xmlns:xlink="http://www.w3.org/1999/xlink" width="150" zoomAndPan="magnify" viewBox="0 0 112.5 112.499997" height="150" preserveAspectRatio="xMidYMid meet" version="1.0"><defs><g/></defs><g fill="#9133c3" fill-opacity="0.4"><g transform="translate(14.6586, 69.946088)"><g><path d="M 5.523438 -0.316406 C 7.570312 0.316406 10.417969 0.195312 10.710938 -2.410156 C 11.050781 -5.378906 8.25 -4.527344 6.328125 -5.355469 C 3.796875 -6.425781 4.890625 -8.859375 6.472656 -10.367188 C 8.347656 -10.976562 11.292969 -11.511719 11.195312 -14.070312 C 11.074219 -16.699219 8.105469 -16.113281 6.378906 -15.527344 C 2.019531 -14.070312 -0.804688 -9.25 0.828125 -4.796875 C 1.628906 -2.652344 3.359375 -1.023438 5.523438 -0.316406 Z M 5.523438 -0.316406 "/></g></g></g><g fill="#9133c3" fill-opacity="0.4"><g transform="translate(25.489246, 69.946088)"><g><path d="M 1.875 -0.144531 C 2.75 0.121094 3.847656 0.046875 4.429688 -0.679688 C 5.0625 -1.460938 4.867188 -3.382812 5.574219 -3.96875 C 5.964844 -4.257812 9.371094 -3.992188 9.492188 -3.894531 C 10.148438 -3.335938 10.273438 -1.777344 10.757812 -1.070312 C 11.441406 -0.0742188 12.339844 -0.0234375 13.289062 -0.777344 C 14.238281 -1.558594 14.140625 -2.359375 13.753906 -3.433594 L 10.90625 -11.441406 C 10.222656 -13.386719 9.761719 -16.382812 7.203125 -16.332031 C 4.941406 -16.257812 3.820312 -14.894531 3.164062 -12.902344 C 2.386719 -10.539062 1.65625 -8.152344 1.070312 -5.746094 C 0.632812 -3.941406 -0.632812 -0.875 1.875 -0.144531 Z M 6.695312 -7.425781 C 6.914062 -8.152344 7.15625 -8.882812 7.375 -9.613281 C 7.570312 -8.957031 7.789062 -8.324219 8.007812 -7.667969 C 7.570312 -7.59375 7.132812 -7.496094 6.695312 -7.425781 Z M 6.695312 -7.425781 "/></g></g></g><g fill="#9133c3" fill-opacity="0.4"><g transform="translate(39.16752, 69.946088)"><g><path d="M 6.035156 0 C 9.929688 -0.0742188 7.960938 -9.6875 7.667969 -11.632812 C 8.640625 -11.632812 10.492188 -11.441406 11.148438 -12.292969 C 11.828125 -13.144531 11.222656 -14.3125 10.34375 -14.726562 C 9.054688 -15.335938 7.375 -15.117188 5.988281 -15.1875 C 4.746094 -15.261719 2.53125 -15.871094 1.410156 -15.359375 C 0.4375 -14.921875 0.0976562 -13.753906 0.558594 -12.828125 C 1.242188 -11.390625 3.117188 -11.585938 4.429688 -11.660156 C 4.527344 -8.910156 4.234375 -6.230469 4.136719 -3.503906 C 4.066406 -2.117188 4.136719 0.0234375 6.035156 0 Z M 6.035156 0 "/></g></g></g><g fill="#9133c3" fill-opacity="0.4"><g transform="translate(49.876474, 69.946088)"><g><path d="M 0.707031 -2.070312 C 1.363281 2.09375 8.421875 -1.023438 10.175781 -2.847656 C 12.925781 -5.71875 14.457031 -10.90625 12.242188 -14.605469 C 11.148438 -16.480469 8.957031 -17.183594 6.914062 -17.304688 C 5.160156 -17.429688 2.289062 -17.304688 1.144531 -15.75 C -0.0234375 -14.117188 0.460938 -11.316406 0.535156 -9.445312 C 0.632812 -7.035156 0.339844 -4.453125 0.707031 -2.070312 Z M 5.648438 -5.550781 C 4.40625 -5.816406 4.941406 -8.566406 4.941406 -9.46875 C 4.964844 -10.929688 4.550781 -12.585938 6.472656 -12.097656 C 7.933594 -11.757812 9.078125 -10.539062 8.738281 -8.980469 C 8.519531 -7.984375 7.035156 -5.234375 5.648438 -5.550781 Z M 5.648438 -5.550781 "/></g></g></g><g fill="#9133c3" fill-opacity="0.4"><g transform="translate(62.824588, 69.946088)"><g><path d="M 8.105469 -0.390625 C 11.757812 -1.777344 12.121094 -7.082031 11.511719 -10.367188 C 10.832031 -14.019531 7.496094 -15.503906 4.089844 -14.289062 C -0.292969 -12.730469 -0.0742188 -7.910156 1.046875 -4.210938 C 1.535156 -2.582031 2.042969 -1.167969 3.699219 -0.4375 C 5.039062 0.144531 6.71875 0.121094 8.105469 -0.390625 Z M 5.113281 -3.675781 C 4.164062 -4.648438 4.234375 -7.398438 4.625 -8.640625 C 4.917969 -9.515625 6.425781 -10.734375 7.472656 -10.175781 C 8.859375 -9.394531 8.398438 -6.035156 8.082031 -4.796875 C 7.691406 -3.359375 6.5 -2.261719 5.113281 -3.675781 Z M 5.113281 -3.675781 "/></g></g></g><g fill="#9133c3" fill-opacity="0.4"><g transform="translate(74.215027, 69.946088)"><g><path d="M 13.121094 -0.828125 C 15.164062 -2.847656 12.925781 -6.597656 11.730469 -8.398438 C 14.484375 -10.953125 15.117188 -14.96875 11.683594 -17.207031 C 9.273438 -18.789062 1.824219 -20.128906 1.167969 -16.066406 C 0.804688 -13.898438 1.070312 -11.464844 0.925781 -9.226562 C 0.777344 -7.179688 -0.0742188 -4.308594 0.65625 -2.3125 C 1.339844 -0.488281 3.40625 -0.0234375 4.671875 -1.558594 C 5.304688 -2.335938 5.523438 -3.359375 5.746094 -4.308594 C 5.816406 -4.625 5.792969 -5.476562 6.011719 -5.71875 C 6.28125 -6.011719 7.789062 -6.132812 8.179688 -6.253906 C 8.519531 -4.453125 9.882812 2.335938 13.121094 -0.828125 Z M 5.621094 -9.296875 C 5.523438 -10.273438 4.941406 -12.097656 5.234375 -12.996094 C 5.429688 -13.65625 5.890625 -13.628906 6.621094 -13.65625 C 8.421875 -13.753906 10.417969 -12.121094 8.300781 -10.636719 C 7.472656 -10.050781 6.546875 -9.664062 5.621094 -9.296875 Z M 5.621094 -9.296875 "/></g></g></g><g fill="#9133c3" fill-opacity="0.4"><g transform="translate(87.868958, 69.946088)"><g><path d="M 8.105469 -0.390625 C 11.757812 -1.777344 12.121094 -7.082031 11.511719 -10.367188 C 10.832031 -14.019531 7.496094 -15.503906 4.089844 -14.289062 C -0.292969 -12.730469 -0.0742188 -7.910156 1.046875 -4.210938 C 1.535156 -2.582031 2.042969 -1.167969 3.699219 -0.4375 C 5.039062 0.144531 6.71875 0.121094 8.105469 -0.390625 Z M 5.113281 -3.675781 C 4.164062 -4.648438 4.234375 -7.398438 4.625 -8.640625 C 4.917969 -9.515625 6.425781 -10.734375 7.472656 -10.175781 C 8.859375 -9.394531 8.398438 -6.035156 8.082031 -4.796875 C 7.691406 -3.359375 6.5 -2.261719 5.113281 -3.675781 Z M 5.113281 -3.675781 "/></g></g></g><g fill="#090909" fill-opacity="1"><g transform="translate(13.582872, 68.87036)"><g><path d="M 5.523438 -0.316406 C 7.570312 0.316406 10.417969 0.195312 10.710938 -2.410156 C 11.050781 -5.378906 8.25 -4.527344 6.328125 -5.355469 C 3.796875 -6.425781 4.890625 -8.859375 6.472656 -10.367188 C 8.347656 -10.976562 11.292969 -11.511719 11.195312 -14.070312 C 11.074219 -16.699219 8.105469 -16.113281 6.378906 -15.527344 C 2.019531 -14.070312 -0.804688 -9.25 0.828125 -4.796875 C 1.628906 -2.652344 3.359375 -1.023438 5.523438 -0.316406 Z M 5.523438 -0.316406 "/></g></g></g><g fill="#090909" fill-opacity="1"><g transform="translate(24.413518, 68.87036)"><g><path d="M 1.875 -0.144531 C 2.75 0.121094 3.847656 0.046875 4.429688 -0.679688 C 5.0625 -1.460938 4.867188 -3.382812 5.574219 -3.96875 C 5.964844 -4.257812 9.371094 -3.992188 9.492188 -3.894531 C 10.148438 -3.335938 10.273438 -1.777344 10.757812 -1.070312 C 11.441406 -0.0742188 12.339844 -0.0234375 13.289062 -0.777344 C 14.238281 -1.558594 14.140625 -2.359375 13.753906 -3.433594 L 10.90625 -11.441406 C 10.222656 -13.386719 9.761719 -16.382812 7.203125 -16.332031 C 4.941406 -16.257812 3.820312 -14.894531 3.164062 -12.902344 C 2.386719 -10.539062 1.65625 -8.152344 1.070312 -5.746094 C 0.632812 -3.941406 -0.632812 -0.875 1.875 -0.144531 Z M 6.695312 -7.425781 C 6.914062 -8.152344 7.15625 -8.882812 7.375 -9.613281 C 7.570312 -8.957031 7.789062 -8.324219 8.007812 -7.667969 C 7.570312 -7.59375 7.132812 -7.496094 6.695312 -7.425781 Z M 6.695312 -7.425781 "/></g></g></g><g fill="#090909" fill-opacity="1"><g transform="translate(38.091792, 68.87036)"><g><path d="M 6.035156 0 C 9.929688 -0.0742188 7.960938 -9.6875 7.667969 -11.632812 C 8.640625 -11.632812 10.492188 -11.441406 11.148438 -12.292969 C 11.828125 -13.144531 11.222656 -14.3125 10.34375 -14.726562 C 9.054688 -15.335938 7.375 -15.117188 5.988281 -15.1875 C 4.746094 -15.261719 2.53125 -15.871094 1.410156 -15.359375 C 0.4375 -14.921875 0.0976562 -13.753906 0.558594 -12.828125 C 1.242188 -11.390625 3.117188 -11.585938 4.429688 -11.660156 C 4.527344 -8.910156 4.234375 -6.230469 4.136719 -3.503906 C 4.066406 -2.117188 4.136719 0.0234375 6.035156 0 Z M 6.035156 0 "/></g></g></g><g fill="#090909" fill-opacity="1"><g transform="translate(48.800746, 68.87036)"><g><path d="M 0.707031 -2.070312 C 1.363281 2.09375 8.421875 -1.023438 10.175781 -2.847656 C 12.925781 -5.71875 14.457031 -10.90625 12.242188 -14.605469 C 11.148438 -16.480469 8.957031 -17.183594 6.914062 -17.304688 C 5.160156 -17.429688 2.289062 -17.304688 1.144531 -15.75 C -0.0234375 -14.117188 0.460938 -11.316406 0.535156 -9.445312 C 0.632812 -7.035156 0.339844 -4.453125 0.707031 -2.070312 Z M 5.648438 -5.550781 C 4.40625 -5.816406 4.941406 -8.566406 4.941406 -9.46875 C 4.964844 -10.929688 4.550781 -12.585938 6.472656 -12.097656 C 7.933594 -11.757812 9.078125 -10.539062 8.738281 -8.980469 C 8.519531 -7.984375 7.035156 -5.234375 5.648438 -5.550781 Z M 5.648438 -5.550781 "/></g></g></g><g fill="#090909" fill-opacity="1"><g transform="translate(61.74886, 68.87036)"><g><path d="M 8.105469 -0.390625 C 11.757812 -1.777344 12.121094 -7.082031 11.511719 -10.367188 C 10.832031 -14.019531 7.496094 -15.503906 4.089844 -14.289062 C -0.292969 -12.730469 -0.0742188 -7.910156 1.046875 -4.210938 C 1.535156 -2.582031 2.042969 -1.167969 3.699219 -0.4375 C 5.039062 0.144531 6.71875 0.121094 8.105469 -0.390625 Z M 5.113281 -3.675781 C 4.164062 -4.648438 4.234375 -7.398438 4.625 -8.640625 C 4.917969 -9.515625 6.425781 -10.734375 7.472656 -10.175781 C 8.859375 -9.394531 8.398438 -6.035156 8.082031 -4.796875 C 7.691406 -3.359375 6.5 -2.261719 5.113281 -3.675781 Z M 5.113281 -3.675781 "/></g></g></g><g fill="#090909" fill-opacity="1"><g transform="translate(73.139299, 68.87036)"><g><path d="M 13.121094 -0.828125 C 15.164062 -2.847656 12.925781 -6.597656 11.730469 -8.398438 C 14.484375 -10.953125 15.117188 -14.96875 11.683594 -17.207031 C 9.273438 -18.789062 1.824219 -20.128906 1.167969 -16.066406 C 0.804688 -13.898438 1.070312 -11.464844 0.925781 -9.226562 C 0.777344 -7.179688 -0.0742188 -4.308594 0.65625 -2.3125 C 1.339844 -0.488281 3.40625 -0.0234375 4.671875 -1.558594 C 5.304688 -2.335938 5.523438 -3.359375 5.746094 -4.308594 C 5.816406 -4.625 5.792969 -5.476562 6.011719 -5.71875 C 6.28125 -6.011719 7.789062 -6.132812 8.179688 -6.253906 C 8.519531 -4.453125 9.882812 2.335938 13.121094 -0.828125 Z M 5.621094 -9.296875 C 5.523438 -10.273438 4.941406 -12.097656 5.234375 -12.996094 C 5.429688 -13.65625 5.890625 -13.628906 6.621094 -13.65625 C 8.421875 -13.753906 10.417969 -12.121094 8.300781 -10.636719 C 7.472656 -10.050781 6.546875 -9.664062 5.621094 -9.296875 Z M 5.621094 -9.296875 "/></g></g></g><g fill="#090909" fill-opacity="1"><g transform="translate(86.79323, 68.87036)"><g><path d="M 8.105469 -0.390625 C 11.757812 -1.777344 12.121094 -7.082031 11.511719 -10.367188 C 10.832031 -14.019531 7.496094 -15.503906 4.089844 -14.289062 C -0.292969 -12.730469 -0.0742188 -7.910156 1.046875 -4.210938 C 1.535156 -2.582031 2.042969 -1.167969 3.699219 -0.4375 C 5.039062 0.144531 6.71875 0.121094 8.105469 -0.390625 Z M 5.113281 -3.675781 C 4.164062 -4.648438 4.234375 -7.398438 4.625 -8.640625 C 4.917969 -9.515625 6.425781 -10.734375 7.472656 -10.175781 C 8.859375 -9.394531 8.398438 -6.035156 8.082031 -4.796875 C 7.691406 -3.359375 6.5 -2.261719 5.113281 -3.675781 Z M 5.113281 -3.675781 "/></g></g></g></svg>