<svg xmlns="http://www.w3.org/2000/svg" xmlns:xlink="http://www.w3.org/1999/xlink" width="500" zoomAndPan="magnify" viewBox="0 0 375 374.999991" height="500" preserveAspectRatio="xMidYMid meet" version="1.0"><defs><clipPath id="a62f6a89c9"><path d="M 79 99 L 298 99 L 298 278 L 79 278 Z M 79 99 " clip-rule="nonzero"/></clipPath><clipPath id="f52a02e053"><path d="M 172.746094 37.503906 L 339.914062 155.726562 L 211.296875 337.59375 L 44.128906 219.367188 Z M 172.746094 37.503906 " clip-rule="nonzero"/></clipPath><clipPath id="de81132847"><path d="M 172.746094 37.503906 L 339.914062 155.726562 L 211.296875 337.59375 L 44.128906 219.367188 Z M 172.746094 37.503906 " clip-rule="nonzero"/></clipPath><clipPath id="26d2f12d9c"><path d="M 116 113 L 271 113 L 271 267 L 116 267 Z M 116 113 " clip-rule="nonzero"/></clipPath><clipPath id="f42e5aa01a"><path d="M 172.746094 37.503906 L 339.914062 155.726562 L 211.296875 337.59375 L 44.128906 219.367188 Z M 172.746094 37.503906 " clip-rule="nonzero"/></clipPath><clipPath id="3c0993bb5a"><path d="M 172.746094 37.503906 L 339.914062 155.726562 L 211.296875 337.59375 L 44.128906 219.367188 Z M 172.746094 37.503906 " clip-rule="nonzero"/></clipPath><clipPath id="1fd0a08684"><path d="M 77 98 L 299 98 L 299 279 L 77 279 Z M 77 98 " clip-rule="nonzero"/></clipPath><clipPath id="9f08684ae0"><path d="M 172.746094 37.503906 L 339.914062 155.726562 L 211.296875 337.59375 L 44.128906 219.367188 Z M 172.746094 37.503906 " clip-rule="nonzero"/></clipPath><clipPath id="2abeb76eb2"><path d="M 172.746094 37.503906 L 339.914062 155.726562 L 211.296875 337.59375 L 44.128906 219.367188 Z M 172.746094 37.503906 " clip-rule="nonzero"/></clipPath><clipPath id="6b6d5933fe"><path d="M 169 192 L 228 192 L 228 249 L 169 249 Z M 169 192 " clip-rule="nonzero"/></clipPath><clipPath id="6e140fe17a"><path d="M 172.746094 37.503906 L 339.914062 155.726562 L 211.296875 337.59375 L 44.128906 219.367188 Z M 172.746094 37.503906 " clip-rule="nonzero"/></clipPath><clipPath id="75b9b1282c"><path d="M 172.746094 37.503906 L 339.914062 155.726562 L 211.296875 337.59375 L 44.128906 219.367188 Z M 172.746094 37.503906 " clip-rule="nonzero"/></clipPath><clipPath id="71d243121a"><path d="M 168 190 L 229 190 L 229 250 L 168 250 Z M 168 190 " clip-rule="nonzero"/></clipPath><clipPath id="4feaee5c60"><path d="M 172.746094 37.503906 L 339.914062 155.726562 L 211.296875 337.59375 L 44.128906 219.367188 Z M 172.746094 37.503906 " clip-rule="nonzero"/></clipPath><clipPath id="5e6712e64e"><path d="M 172.746094 37.503906 L 339.914062 155.726562 L 211.296875 337.59375 L 44.128906 219.367188 Z M 172.746094 37.503906 " clip-rule="nonzero"/></clipPath><clipPath id="6c0d6581f5"><path d="M 236 179 L 245 179 L 245 190 L 236 190 Z M 236 179 " clip-rule="nonzero"/></clipPath><clipPath id="f75e8a4b8b"><path d="M 172.746094 37.503906 L 339.914062 155.726562 L 211.296875 337.59375 L 44.128906 219.367188 Z M 172.746094 37.503906 " clip-rule="nonzero"/></clipPath><clipPath id="227f6624af"><path d="M 172.746094 37.503906 L 339.914062 155.726562 L 211.296875 337.59375 L 44.128906 219.367188 Z M 172.746094 37.503906 " clip-rule="nonzero"/></clipPath><clipPath id="d503d40cb5"><path d="M 236 179 L 247 179 L 247 191 L 236 191 Z M 236 179 " clip-rule="nonzero"/></clipPath><clipPath id="9b6a7f1843"><path d="M 172.746094 37.503906 L 339.914062 155.726562 L 211.296875 337.59375 L 44.128906 219.367188 Z M 172.746094 37.503906 " clip-rule="nonzero"/></clipPath><clipPath id="222b35273d"><path d="M 172.746094 37.503906 L 339.914062 155.726562 L 211.296875 337.59375 L 44.128906 219.367188 Z M 172.746094 37.503906 " clip-rule="nonzero"/></clipPath><clipPath id="846868465f"><path d="M 173 177 L 182 177 L 182 188 L 173 188 Z M 173 177 " clip-rule="nonzero"/></clipPath><clipPath id="fd8fc27fe6"><path d="M 172.746094 37.503906 L 339.914062 155.726562 L 211.296875 337.59375 L 44.128906 219.367188 Z M 172.746094 37.503906 " clip-rule="nonzero"/></clipPath><clipPath id="15b33bce64"><path d="M 172.746094 37.503906 L 339.914062 155.726562 L 211.296875 337.59375 L 44.128906 219.367188 Z M 172.746094 37.503906 " clip-rule="nonzero"/></clipPath><clipPath id="62053539aa"><path d="M 172 176 L 182 176 L 182 188 L 172 188 Z M 172 176 " clip-rule="nonzero"/></clipPath><clipPath id="05a0809bc0"><path d="M 172.746094 37.503906 L 339.914062 155.726562 L 211.296875 337.59375 L 44.128906 219.367188 Z M 172.746094 37.503906 " clip-rule="nonzero"/></clipPath><clipPath id="91f70e370f"><path d="M 172.746094 37.503906 L 339.914062 155.726562 L 211.296875 337.59375 L 44.128906 219.367188 Z M 172.746094 37.503906 " clip-rule="nonzero"/></clipPath></defs><g clip-path="url(#a62f6a89c9)"><g clip-path="url(#f52a02e053)"><g clip-path="url(#de81132847)"><path fill="#fff2ee" d="M 237.425781 122.351562 C 233.949219 137.898438 222.964844 137.292969 208.953125 134.164062 C 199.542969 132.171875 189.1875 134.121094 179.339844 135.347656 C 178.898438 135.492188 178.445312 135.59375 177.984375 135.65625 C 177.523438 135.71875 177.058594 135.738281 176.59375 135.71875 C 176.128906 135.695312 175.671875 135.636719 175.21875 135.53125 C 174.761719 135.429688 174.324219 135.285156 173.894531 135.105469 C 173.464844 134.921875 173.058594 134.707031 172.667969 134.449219 C 172.28125 134.195312 171.917969 133.910156 171.578125 133.589844 C 171.242188 133.269531 170.9375 132.921875 170.660156 132.546875 C 170.382812 132.171875 170.144531 131.777344 169.941406 131.359375 C 164.386719 122.007812 157.964844 113.34375 151.679688 104.5625 C 146.492188 97.367188 139.605469 97.699219 134.8125 106.460938 C 128.488281 118.078125 122.898438 130.035156 118.042969 142.335938 C 114.039062 152.355469 111.660156 162.984375 108.183594 173.328125 C 107.703125 174.078125 107.0625 174.65625 106.273438 175.066406 C 105.480469 175.476562 104.640625 175.660156 103.753906 175.621094 C 98.074219 174.316406 92.574219 172 86.898438 171.078125 C 84.8125 170.738281 82.289062 173.238281 79.90625 174.539062 C 81.53125 176.449219 82.835938 179.269531 84.875 180.058594 C 90.332031 182.128906 96.335938 182.742188 101.667969 184.992188 C 102.953125 185.730469 104.023438 186.703125 104.878906 187.914062 C 105.730469 189.125 106.292969 190.460938 106.558594 191.921875 C 107.160156 198.019531 107.136719 204.113281 106.496094 210.210938 C 106.242188 211.347656 105.753906 212.378906 105.03125 213.292969 C 104.308594 214.207031 103.421875 214.921875 102.371094 215.429688 C 97.46875 217.386719 92.148438 217.800781 87.464844 219.914062 C 85.191406 220.910156 84.027344 224.316406 82.355469 226.601562 C 84.804688 227.515625 87.335938 228.09375 89.945312 228.335938 C 92.214844 228.261719 94.371094 226.585938 96.820312 226.257812 C 100.730469 225.550781 106.898438 223.40625 108.40625 225.175781 C 109.089844 225.972656 109.699219 226.820312 110.230469 227.730469 C 110.757812 228.636719 111.203125 229.585938 111.558594 230.574219 C 111.914062 231.5625 112.175781 232.578125 112.347656 233.613281 C 112.519531 234.652344 112.59375 235.699219 112.570312 236.75 C 112.550781 237.800781 112.433594 238.84375 112.21875 239.875 C 112.007812 240.90625 111.703125 241.910156 111.308594 242.886719 C 110.910156 243.859375 110.429688 244.792969 109.863281 245.679688 C 109.296875 246.570312 108.65625 247.398438 107.9375 248.167969 C 107.03125 248.785156 106.273438 249.550781 105.664062 250.464844 C 104.664062 253.175781 104.007812 256.019531 103.179688 258.796875 C 105.976562 258.28125 109.65625 258.660156 111.375 257 C 117.269531 251.1875 121.011719 255.300781 123.917969 259.523438 C 124.800781 260.894531 125.765625 262.203125 126.8125 263.449219 C 127.855469 264.695312 128.976562 265.871094 130.167969 266.980469 C 131.363281 268.085938 132.621094 269.113281 133.941406 270.0625 C 135.265625 271.011719 136.640625 271.871094 138.074219 272.648438 C 139.503906 273.421875 140.976562 274.105469 142.492188 274.699219 C 144.011719 275.289062 145.558594 275.78125 147.136719 276.179688 C 148.714844 276.574219 150.3125 276.871094 151.929688 277.070312 C 153.546875 277.265625 155.167969 277.359375 156.796875 277.351562 C 162.851562 277.511719 168.894531 277.609375 174.960938 277.289062 C 184.058594 276.578125 193.019531 275.042969 201.839844 272.6875 C 210.664062 270.328125 219.199219 267.1875 227.449219 263.261719 C 241.335938 257.082031 250.191406 245.554688 258.425781 233.53125 C 261.238281 229.554688 263.371094 228.675781 267.136719 231.613281 C 268.4375 232.832031 269.96875 233.574219 271.734375 233.832031 C 273.832031 233.367188 275.832031 232.628906 277.734375 231.621094 L 275.882812 225.972656 C 275.882812 225.972656 275.523438 225.71875 275.34375 225.589844 L 267.234375 217.632812 C 271.089844 216.996094 274.964844 216.261719 278.816406 215.789062 C 282.667969 215.3125 287.535156 215.390625 291.765625 214.53125 C 293.75 213.648438 295.511719 212.433594 297.042969 210.890625 C 295.132812 209.539062 293.328125 207.121094 291.382812 206.886719 C 286.917969 206.546875 282.339844 207.59375 277.835938 207.609375 C 275.820312 207.304688 273.882812 206.730469 272.023438 205.886719 C 272.960938 203.667969 274.214844 201.640625 275.78125 199.8125 C 277.855469 198.023438 280.820312 197.351562 283.074219 195.695312 C 284.359375 194.414062 285.390625 192.957031 286.167969 191.320312 C 284.453125 190.378906 282.417969 188.285156 281.019531 188.65625 C 275.96875 189.910156 276.339844 187.625 276.898438 184.003906 C 277.855469 176.128906 278.097656 168.230469 277.628906 160.316406 C 277.15625 152.398438 275.976562 144.589844 274.089844 136.890625 C 272.070312 127.816406 270.816406 118.574219 268.085938 109.589844 C 267.390625 107.902344 266.398438 106.410156 265.113281 105.117188 C 263.828125 103.820312 262.34375 102.820312 260.660156 102.117188 C 258.675781 101.253906 254.5 103.183594 252.496094 105.019531 C 247.589844 110.121094 243.0625 115.761719 237.425781 122.351562 Z M 248.035156 232.3125 C 242.234375 242.964844 228.605469 249.921875 213.480469 255.171875 C 193.4375 262.097656 173.214844 266.832031 151.773438 264.417969 C 150.5625 264.320312 149.359375 264.144531 148.171875 263.890625 C 146.980469 263.632812 145.8125 263.296875 144.667969 262.882812 C 143.527344 262.46875 142.414062 261.980469 141.335938 261.417969 C 140.257812 260.855469 139.222656 260.222656 138.230469 259.519531 C 137.234375 258.816406 136.292969 258.050781 135.402344 257.222656 C 134.511719 256.394531 133.683594 255.507812 132.910156 254.566406 C 132.140625 253.625 131.433594 252.636719 130.796875 251.601562 C 130.160156 250.566406 129.59375 249.492188 129.097656 248.378906 C 128.753906 247.175781 128.707031 245.957031 128.964844 244.730469 C 129.222656 243.5 129.75 242.402344 130.550781 241.433594 C 133.503906 238.097656 137.789062 235.707031 140.816406 232.421875 C 142.183594 230.949219 142.148438 227.9375 142.601562 225.765625 C 140.335938 225.683594 137.613281 224.789062 135.859375 225.664062 C 132.777344 227.6875 129.859375 229.925781 127.105469 232.382812 C 126.0625 233.046875 124.960938 233.585938 123.796875 234 C 122.332031 230.523438 121.144531 226.953125 120.230469 223.289062 C 120.355469 222.351562 120.695312 221.492188 121.242188 220.71875 C 121.789062 219.945312 122.484375 219.34375 123.324219 218.914062 C 127.976562 217.15625 132.988281 216.417969 137.582031 214.511719 C 139.574219 213.050781 141.21875 211.265625 142.503906 209.15625 C 140.269531 207.953125 137.820312 205.839844 135.792969 205.871094 C 131.71875 206.550781 127.78125 207.707031 123.984375 209.34375 C 119.832031 210.855469 117.285156 210.628906 117.996094 205.109375 C 118.449219 200.875 118.664062 196.523438 119.164062 192.375 C 122.65625 193.328125 126.199219 194.023438 129.796875 194.46875 C 131.53125 194.613281 134.910156 193.207031 134.945312 192.308594 C 135.042969 191.21875 134.886719 190.160156 134.484375 189.144531 C 134.082031 188.125 133.476562 187.25 132.660156 186.515625 C 129.921875 184.578125 126.128906 184.285156 123.082031 182.78125 C 121.523438 182.003906 119.378906 179.835938 119.574219 178.5625 C 121.230469 167.515625 123.949219 156.734375 127.730469 146.214844 C 131.507812 135.699219 136.273438 125.648438 142.027344 116.066406 C 142.566406 115.308594 146.140625 115.070312 146.707031 115.796875 C 153.328125 124.871094 159.917969 133.980469 165.972656 143.46875 C 166.160156 143.914062 166.390625 144.332031 166.660156 144.730469 C 166.933594 145.132812 167.238281 145.5 167.578125 145.839844 C 167.917969 146.179688 168.289062 146.484375 168.6875 146.753906 C 169.089844 147.023438 169.507812 147.253906 169.953125 147.441406 C 170.394531 147.628906 170.851562 147.773438 171.324219 147.875 C 171.796875 147.976562 172.273438 148.03125 172.753906 148.039062 C 173.234375 148.050781 173.714844 148.011719 174.191406 147.929688 C 174.664062 147.847656 175.128906 147.722656 175.578125 147.550781 C 180.097656 146.050781 184.695312 144.855469 189.367188 143.960938 C 197.316406 143.011719 205.269531 142.933594 213.230469 143.722656 C 221.191406 144.515625 228.972656 146.15625 236.570312 148.648438 C 238.808594 148.902344 241.042969 148.855469 243.269531 148.503906 C 242.914062 146.410156 242.398438 144.308594 242.21875 142.339844 C 242.042969 140.371094 241.558594 138.074219 242.398438 136.660156 C 246.207031 130.351562 250.34375 124.273438 254.675781 118.226562 C 255.980469 116.933594 257.449219 115.875 259.085938 115.050781 C 259.933594 116.746094 260.664062 118.492188 261.277344 120.289062 C 262.402344 124.664062 263.167969 129.164062 264.453125 133.382812 C 273.558594 167.160156 269.296875 198.804688 248.035156 232.3125 Z M 248.035156 232.3125 " fill-opacity="1" fill-rule="nonzero"/></g></g></g><g clip-path="url(#26d2f12d9c)"><g clip-path="url(#f42e5aa01a)"><g clip-path="url(#3c0993bb5a)"><path fill="#fff2ee" d="M 249.136719 232.441406 C 249.675781 231.992188 250.070312 231.4375 250.3125 230.777344 L 251.808594 228.203125 C 252.652344 227.007812 253.242188 225.636719 253.242188 225.636719 C 254.632812 222.984375 256.15625 220.375 257.382812 217.71875 C 258.253906 216.488281 258.835938 215.054688 259.4375 213.746094 L 261.34375 209.671875 C 261.960938 208.261719 262.382812 206.824219 262.929688 205.367188 C 263.472656 203.90625 263.929688 202.496094 264.402344 200.984375 C 265.34375 198.125 266.382812 195.28125 267.117188 192.328125 C 267.855469 189.378906 268.234375 186.390625 268.710938 183.421875 C 269.191406 180.453125 269.855469 177.449219 270.136719 174.449219 C 270.417969 171.449219 270.375 168.378906 270.363281 165.332031 C 270.394531 163.835938 270.265625 162.335938 270.199219 160.824219 C 270.179688 159.300781 270.078125 157.785156 269.902344 156.273438 C 269.773438 154.773438 269.644531 153.273438 269.453125 151.78125 L 268.785156 147.296875 C 268.597656 145.804688 268.246094 144.3125 267.996094 142.832031 C 267.746094 141.351562 267.519531 139.835938 267.117188 138.414062 L 264.535156 129.753906 C 264.03125 126.792969 263.703125 123.742188 263.050781 120.839844 C 262.796875 119.648438 262.421875 118.496094 261.925781 117.382812 L 261.113281 115.78125 L 259.792969 113.054688 L 257.851562 114.503906 L 256.5 115.339844 C 255.769531 115.761719 255.09375 116.261719 254.472656 116.832031 C 254.179688 117.167969 253.925781 117.53125 253.703125 117.917969 L 253.066406 118.820312 L 250.507812 122.4375 C 248.769531 124.894531 247.03125 127.355469 245.394531 129.667969 L 243.019531 133.410156 L 241.714844 135.253906 L 241.277344 135.871094 C 241.085938 136.058594 240.933594 136.277344 240.820312 136.519531 C 240.660156 136.96875 240.570312 137.429688 240.546875 137.902344 C 240.5 139.480469 240.578125 141.054688 240.777344 142.621094 L 241.078125 144.949219 L 241.425781 146.984375 L 239.589844 147.207031 C 239.054688 147.273438 238.519531 147.292969 237.984375 147.261719 C 237.433594 147.207031 236.898438 147.101562 236.375 146.9375 C 233.476562 146.136719 230.542969 145.46875 227.605469 144.804688 C 224.667969 144.136719 221.773438 143.335938 218.824219 142.769531 C 215.871094 142.199219 212.832031 142.058594 209.8125 141.820312 C 206.789062 141.582031 203.792969 141.304688 200.765625 141.226562 C 197.738281 141.148438 194.886719 141.894531 191.738281 142.21875 C 188.703125 142.4375 185.703125 142.902344 182.746094 143.613281 C 179.875 144.460938 176.925781 145.574219 174.230469 146.324219 C 172.957031 146.558594 171.746094 146.386719 170.589844 145.8125 C 169.476562 145.144531 168.59375 144.25 167.945312 143.128906 L 162.582031 136.027344 L 157.597656 128.542969 L 152.6875 121.492188 L 147.671875 115.125 C 147.34375 114.667969 146.910156 114.363281 146.375 114.207031 C 145.550781 114.011719 144.71875 113.964844 143.878906 114.066406 C 143.449219 114.101562 143.03125 114.1875 142.617188 114.316406 C 142.011719 114.460938 141.519531 114.78125 141.132812 115.269531 L 138.679688 119.503906 C 136.964844 121.925781 135.660156 124.691406 134.324219 127.269531 C 132.984375 129.847656 132.039062 132.867188 130.976562 135.75 C 129.910156 138.632812 128.621094 141.296875 127.519531 144.152344 C 126.417969 147.011719 125.433594 149.78125 124.351562 152.761719 C 123.273438 155.742188 122.800781 158.550781 122.125 161.492188 C 121.453125 164.433594 120.546875 167.320312 119.875 170.261719 L 119.011719 174.695312 L 118.664062 176.945312 L 118.472656 178.054688 C 118.355469 178.640625 118.378906 179.21875 118.542969 179.789062 C 118.941406 180.652344 119.492188 181.402344 120.195312 182.042969 C 120.816406 182.617188 121.503906 183.101562 122.25 183.496094 C 123.648438 184.148438 125.097656 184.648438 126.597656 184.996094 C 128.027344 185.484375 129.417969 186.070312 130.765625 186.75 L 131.59375 187.335938 L 132.28125 187.820312 C 132.613281 188.242188 132.863281 188.707031 133.023438 189.214844 C 133.265625 189.679688 133.445312 190.167969 133.558594 190.679688 L 133.683594 191.417969 C 133.71875 191.585938 133.726562 191.753906 133.707031 191.921875 C 133.410156 192.136719 133.089844 192.308594 132.75 192.4375 C 132.078125 192.761719 131.375 192.96875 130.632812 193.054688 C 129.996094 193.085938 129.363281 193.039062 128.738281 192.910156 L 126.613281 192.546875 L 122.339844 191.476562 L 118.953125 190.761719 C 118.085938 190.148438 118.414062 191.519531 118.082031 191.992188 L 117.964844 193.914062 L 117.714844 198.402344 L 117.070312 202.828125 C 116.777344 204.425781 116.648438 206.03125 116.6875 207.65625 C 116.835938 208.824219 117.367188 209.777344 118.28125 210.519531 C 119.234375 211.113281 120.261719 211.316406 121.367188 211.128906 C 122.953125 210.8125 124.472656 210.296875 125.925781 209.578125 C 128.652344 208.507812 131.453125 207.683594 134.324219 207.109375 C 134.980469 206.988281 135.648438 206.914062 136.316406 206.894531 C 136.859375 206.964844 137.363281 207.144531 137.835938 207.421875 C 138.425781 207.785156 138.992188 208.183594 139.527344 208.621094 L 140.429688 209.257812 L 140.199219 209.585938 C 139.789062 210.164062 139.40625 210.707031 139.023438 211.25 C 138.734375 211.746094 138.402344 212.21875 138.027344 212.65625 L 137.402344 213.082031 L 136.480469 213.464844 C 133.683594 214.386719 130.84375 215.164062 127.964844 215.792969 C 126.519531 216.234375 125.070312 216.675781 123.609375 217.214844 L 122.910156 217.589844 C 122.652344 217.679688 122.410156 217.792969 122.175781 217.9375 C 121.785156 218.191406 121.421875 218.476562 121.085938 218.792969 C 120.464844 219.4375 119.953125 220.164062 119.550781 220.960938 C 119.097656 221.695312 118.914062 222.488281 119.003906 223.34375 C 119.566406 225.789062 120.363281 228.160156 121.386719 230.449219 L 122.09375 232.359375 L 123.21875 235.433594 C 124.472656 234.804688 126.011719 234.15625 126.574219 233.902344 C 127.003906 233.683594 127.414062 233.433594 127.808594 233.148438 L 128.785156 232.375 C 130.949219 230.375 133.25 228.546875 135.691406 226.898438 C 135.9375 226.730469 136.199219 226.589844 136.476562 226.476562 L 137.082031 226.308594 C 137.621094 226.234375 138.160156 226.238281 138.699219 226.3125 L 140.554688 226.597656 L 141.214844 226.734375 L 140.9375 228.65625 C 140.835938 229.300781 140.679688 229.929688 140.464844 230.546875 C 140.414062 231.019531 140.230469 231.429688 139.914062 231.785156 L 139.328125 232.617188 C 138.917969 233.195312 138.253906 233.59375 137.703125 234.070312 C 135.515625 235.941406 132.976562 237.617188 130.640625 239.925781 C 130.410156 240.25 130.207031 240.539062 129.796875 240.738281 C 129.496094 241.085938 129.230469 241.460938 129.003906 241.859375 C 128.53125 242.601562 128.167969 243.394531 127.917969 244.234375 C 127.648438 245.074219 127.511719 245.933594 127.5 246.816406 C 127.484375 247.277344 127.519531 247.738281 127.605469 248.191406 C 127.6875 248.703125 127.855469 249.179688 128.105469 249.628906 C 129.539062 252.449219 131.320312 255.03125 133.449219 257.367188 C 135.675781 259.597656 138.210938 261.390625 141.054688 262.75 C 143.824219 264.167969 146.738281 265.144531 149.800781 265.679688 C 152.855469 266.101562 155.839844 266.316406 158.777344 266.601562 C 161.710938 266.886719 164.789062 266.894531 167.832031 266.875 C 170.871094 266.859375 173.863281 266.53125 176.839844 266.144531 C 179.820312 265.753906 182.847656 265.292969 185.785156 264.660156 C 188.722656 264.023438 191.949219 263.59375 194.664062 262.964844 C 197.378906 262.335938 200.40625 261.113281 203.210938 260.058594 C 206.011719 259.003906 209.019531 258.417969 211.855469 257.546875 C 214.6875 256.675781 217.496094 255.460938 220.277344 254.28125 C 223.132812 253.300781 225.933594 252.171875 228.675781 250.894531 C 231.398438 249.394531 233.996094 247.707031 236.472656 245.832031 C 239.035156 244.125 241.398438 242.183594 243.570312 240.003906 C 245.226562 238.546875 246.589844 236.851562 247.652344 234.917969 C 247.859375 234.628906 249.007812 233 248.175781 232.574219 C 248.105469 232.394531 247.984375 232.257812 247.820312 232.160156 L 247.035156 232.199219 C 246.597656 232.285156 246.253906 232.515625 246.007812 232.886719 C 244.839844 234.765625 243.5 236.511719 241.980469 238.121094 C 239.867188 240.144531 237.597656 241.972656 235.175781 243.613281 C 232.734375 245.273438 230.199219 246.769531 227.566406 248.101562 C 224.894531 249.359375 222.136719 250.5 219.363281 251.519531 C 216.585938 252.539062 213.761719 253.472656 210.894531 254.320312 C 208.023438 255.164062 205.292969 256.269531 202.472656 257.203125 C 199.648438 258.136719 196.777344 258.601562 193.800781 259.371094 C 190.820312 260.140625 188.140625 260.792969 185.179688 261.464844 C 182.21875 262.136719 179.324219 262.476562 176.40625 262.855469 C 173.492188 263.230469 170.605469 263.414062 167.570312 263.492188 C 164.539062 263.574219 161.664062 263.816406 158.683594 263.824219 C 155.753906 263.640625 152.839844 263.296875 149.945312 262.796875 C 147.117188 262.261719 144.429688 261.320312 141.882812 259.972656 C 139.292969 258.738281 136.988281 257.109375 134.960938 255.078125 C 133.132812 252.832031 131.609375 250.398438 130.390625 247.773438 C 129.953125 246.652344 129.941406 245.519531 130.351562 244.386719 C 130.503906 243.773438 130.730469 243.195312 131.042969 242.648438 C 131.414062 242.125 131.839844 241.648438 132.320312 241.222656 C 134.328125 239.222656 136.769531 237.53125 139.085938 235.480469 C 139.710938 235.019531 140.300781 234.515625 140.855469 233.96875 C 141.179688 233.699219 141.476562 233.402344 141.753906 233.085938 C 142.097656 232.714844 142.386719 232.304688 142.621094 231.855469 C 142.972656 231.0625 143.210938 230.238281 143.34375 229.382812 L 143.847656 226.757812 C 143.96875 225.972656 144.152344 225.179688 144.308594 224.421875 L 142.300781 224.359375 L 140.746094 224.183594 L 138.71875 223.996094 C 137.957031 223.9375 137.203125 223.980469 136.457031 224.132812 C 136.007812 224.222656 135.578125 224.371094 135.167969 224.578125 L 134.28125 225.140625 C 131.785156 226.917969 129.441406 228.875 127.257812 231.023438 L 126.292969 231.695312 C 126.003906 231.871094 125.699219 232.015625 125.382812 232.140625 C 125.050781 232.28125 124.714844 232.402344 124.367188 232.503906 L 124.308594 231.59375 L 123.65625 229.613281 C 122.820312 227.421875 122.195312 225.171875 121.777344 222.863281 C 121.902344 222.625 122.054688 222.40625 122.238281 222.210938 C 122.515625 221.667969 122.863281 221.171875 123.285156 220.730469 C 123.492188 220.523438 123.710938 220.335938 123.953125 220.167969 L 124.132812 219.917969 L 124.664062 219.699219 C 125.992188 219.117188 127.367188 218.625 128.78125 218.160156 C 131.679688 217.5 134.691406 216.917969 137.609375 216 C 137.816406 215.710938 138.230469 215.734375 138.640625 215.535156 C 139.035156 215.324219 139.40625 215.082031 139.753906 214.800781 C 140.324219 214.253906 140.847656 213.667969 141.328125 213.039062 C 141.734375 212.460938 142.144531 211.882812 142.554688 211.304688 L 143.398438 210.109375 L 144.421875 208.664062 L 143.410156 207.949219 L 142.652344 207.414062 L 141.066406 206.292969 C 140.46875 205.789062 139.832031 205.339844 139.15625 204.941406 C 138.332031 204.488281 137.445312 204.261719 136.503906 204.257812 C 135.710938 204.328125 134.929688 204.441406 134.152344 204.601562 C 131.160156 205.257812 128.25 206.164062 125.414062 207.320312 C 124.121094 207.828125 122.78125 208.167969 121.398438 208.332031 C 120.125 208.296875 120.058594 208.085938 119.847656 206.855469 C 119.792969 206.214844 119.8125 205.574219 119.902344 204.941406 L 120.128906 202.710938 L 120.046875 198.695312 L 120.238281 194.21875 L 120.453125 194.371094 L 121.441406 194.582031 L 126.042969 195.722656 C 126.796875 195.882812 127.558594 196.007812 128.328125 196.089844 L 129.488281 196.207031 C 129.921875 196.257812 130.355469 196.257812 130.789062 196.203125 C 131.8125 195.890625 132.757812 195.417969 133.625 194.792969 C 134.09375 194.625 134.542969 194.421875 134.980469 194.175781 C 135.660156 193.773438 136.078125 193.183594 136.230469 192.40625 C 136.277344 191.730469 136.257812 191.449219 136.257812 191.066406 L 136.132812 189.949219 C 136.027344 189.207031 135.832031 188.488281 135.542969 187.796875 C 135.109375 186.90625 134.503906 186.15625 133.730469 185.539062 C 132.996094 185.078125 132.222656 184.695312 131.410156 184.386719 C 129.894531 183.855469 128.40625 183.507812 126.910156 183.101562 C 125.574219 182.699219 124.289062 182.171875 123.058594 181.515625 C 121.984375 180.855469 121.179688 179.957031 120.632812 178.824219 L 120.886719 178.460938 L 121.117188 177.375 L 121.597656 175.167969 L 122.621094 170.738281 C 123.074219 167.804688 123.621094 164.882812 124.210938 161.988281 C 124.796875 159.097656 125.601562 156.195312 126.421875 153.355469 C 127.238281 150.519531 128.582031 147.777344 129.875 144.953125 C 131.171875 142.125 131.707031 139.304688 132.757812 136.519531 C 133.804688 133.738281 135.339844 131.1875 136.789062 128.523438 C 138.238281 125.863281 139.335938 123.164062 140.710938 120.453125 L 143.269531 116.835938 C 143.542969 116.753906 143.820312 116.714844 144.105469 116.722656 C 144.585938 116.675781 145.066406 116.6875 145.539062 116.761719 L 150.5625 122.96875 L 155.535156 130.390625 L 160.820312 137.601562 L 163.125 141.453125 C 163.910156 142.714844 164.535156 143.972656 165.464844 145.332031 C 166.503906 146.746094 167.816406 147.816406 169.40625 148.554688 C 171.101562 149.210938 172.832031 149.316406 174.597656 148.863281 C 177.660156 148.046875 180.351562 147.074219 183.265625 146.316406 C 186.136719 145.660156 189.035156 145.253906 191.972656 145.097656 C 194.898438 144.792969 197.835938 144.644531 200.777344 144.652344 C 203.722656 144.621094 206.652344 144.683594 209.574219 144.90625 C 212.5 145.132812 215.527344 145.210938 218.332031 145.675781 C 221.140625 146.144531 224.175781 146.824219 227.050781 147.503906 C 229.925781 148.179688 232.753906 149.148438 235.546875 150.09375 C 236.214844 150.316406 236.894531 150.472656 237.59375 150.566406 C 238.28125 150.636719 238.964844 150.636719 239.652344 150.558594 L 241.535156 150.421875 C 242.648438 150.28125 243.765625 150.207031 244.886719 150.191406 L 244.363281 147.109375 C 243.957031 145.464844 243.613281 144.191406 243.375 142.773438 C 243.109375 141.355469 242.929688 139.929688 242.835938 138.488281 C 242.882812 138.207031 242.953125 137.929688 243.042969 137.660156 C 243.136719 137.5625 243.210938 137.453125 243.273438 137.335938 L 247.644531 131.152344 C 249.179688 128.601562 250.78125 126.101562 252.363281 123.640625 L 255.636719 119.011719 C 255.761719 118.757812 255.925781 118.527344 256.121094 118.324219 C 256.636719 117.878906 257.195312 117.496094 257.796875 117.179688 L 258.40625 116.851562 L 258.5625 116.632812 L 258.886719 116.863281 L 259.605469 118.292969 C 260.042969 119.257812 260.378906 120.257812 260.621094 121.289062 C 261.335938 124.183594 261.925781 127.09375 262.613281 130.023438 L 264.730469 138.730469 C 265.070312 140.164062 265.222656 141.628906 265.472656 143.109375 C 265.726562 144.589844 266.003906 146.03125 266.15625 147.496094 L 266.742188 151.871094 C 266.929688 153.359375 267.023438 154.835938 267.179688 156.300781 C 267.332031 157.765625 267.425781 159.242188 267.453125 160.726562 C 267.484375 162.214844 267.601562 163.652344 267.597656 165.113281 C 267.695312 168.113281 267.78125 171.046875 267.648438 173.992188 C 267.515625 176.933594 266.875 179.898438 266.449219 182.796875 C 266.023438 185.695312 265.214844 188.597656 264.335938 191.445312 C 263.457031 194.296875 262.796875 197.136719 261.945312 199.953125 C 261.546875 201.351562 261.027344 202.773438 260.433594 204.304688 C 259.835938 205.835938 259.515625 207.128906 258.847656 208.609375 L 256.976562 212.710938 C 256.351562 214.054688 255.613281 215.328125 254.925781 216.683594 L 254.386719 217.980469 C 253.925781 218.632812 253.609375 219.765625 253.078125 220.746094 L 251.097656 224.769531 C 250.5625 225.53125 250 226.324219 249.460938 227.085938 L 248.183594 228.890625 C 247.875 229.324219 246.238281 231.640625 247.675781 232.4375 C 247.878906 232.632812 248.125 232.730469 248.40625 232.730469 C 248.6875 232.730469 248.929688 232.632812 249.136719 232.441406 Z M 249.136719 232.441406 " fill-opacity="1" fill-rule="nonzero"/></g></g></g><g clip-path="url(#1fd0a08684)"><g clip-path="url(#9f08684ae0)"><g clip-path="url(#2abeb76eb2)"><path fill="#fff2ee" d="M 238.71875 122.667969 C 239.363281 122.074219 239.855469 121.375 240.199219 120.570312 L 244.753906 114.894531 C 247.15625 112.039062 249.566406 109.242188 252.128906 106.605469 L 253.113281 105.675781 C 253.425781 105.402344 253.753906 105.144531 254.09375 104.902344 C 254.808594 104.429688 255.566406 104.042969 256.371094 103.746094 C 257.128906 103.421875 257.914062 103.203125 258.730469 103.085938 C 259.078125 103.066406 259.421875 103.089844 259.761719 103.160156 L 260.046875 103.367188 L 260.515625 103.695312 C 262.046875 104.488281 263.386719 105.527344 264.535156 106.808594 C 265.113281 107.433594 265.601562 108.121094 265.996094 108.875 C 266.402344 109.617188 266.714844 110.398438 266.933594 111.21875 C 267.824219 114.777344 268.53125 118.367188 269.183594 122.03125 L 271.605469 132.910156 C 272.234375 136.609375 272.976562 140.226562 273.496094 143.847656 C 274.019531 147.46875 275.058594 150.972656 275.5625 154.691406 C 276.070312 158.414062 276.199219 161.976562 276.328125 165.539062 C 276.488281 169.273438 276.445312 173.003906 276.203125 176.730469 C 276.101562 178.558594 275.902344 180.371094 275.640625 182.191406 L 275.253906 184.957031 C 275.054688 186.046875 275.039062 187.136719 275.207031 188.230469 C 275.386719 189.003906 275.796875 189.621094 276.441406 190.082031 C 277.03125 190.449219 277.671875 190.613281 278.367188 190.574219 C 279.335938 190.570312 280.28125 190.425781 281.210938 190.144531 C 281.210938 190.144531 282.257812 190.34375 282.980469 190.855469 L 284.207031 191.722656 L 284.640625 192.027344 L 284.308594 192.496094 L 283.539062 193.582031 C 283.140625 194.265625 282.597656 194.804688 281.910156 195.195312 C 280.304688 196.042969 278.65625 196.792969 276.964844 197.449219 C 276.164062 197.890625 275.417969 198.414062 274.726562 199.011719 C 274.054688 199.691406 273.507812 200.464844 273.089844 201.324219 C 272.578125 202.046875 272.089844 202.734375 271.917969 203.589844 L 271.5625 204.09375 C 271.355469 204.382812 271.203125 204.601562 270.972656 204.925781 L 269.910156 206.886719 L 272.425781 207.691406 L 273.953125 208.28125 L 275.363281 208.738281 C 276.386719 209.015625 277.429688 209.101562 278.484375 208.992188 C 280.410156 208.941406 282.269531 208.683594 284.1875 208.574219 C 286.101562 208.464844 287.847656 208.289062 289.734375 208.378906 L 291.046875 208.4375 C 291.355469 208.480469 291.65625 208.566406 291.945312 208.691406 C 292.667969 209.070312 293.328125 209.539062 293.929688 210.09375 L 294.972656 210.835938 L 295.226562 211.011719 L 295.023438 211.300781 C 294.550781 211.742188 294.0625 212.152344 293.550781 212.539062 C 293.121094 212.878906 292.648438 213.140625 292.128906 213.324219 C 291.53125 213.472656 290.929688 213.589844 290.316406 213.671875 C 286.75 214.128906 283.109375 213.996094 279.257812 214.472656 L 266.78125 216.820312 L 265.574219 217 L 265.445312 217.179688 L 265.695312 217.359375 L 266.203125 217.714844 L 267.980469 219.40625 L 270.59375 221.90625 L 274.640625 225.746094 L 275.398438 226.28125 L 275.9375 226.660156 L 276.40625 228.292969 L 276.074219 230.445312 L 276.210938 230.867188 L 276.03125 231.121094 L 274.46875 231.644531 C 273.707031 231.960938 272.917969 232.160156 272.097656 232.246094 C 271.375 232.261719 270.703125 232.09375 270.078125 231.738281 C 269.328125 231.292969 268.621094 230.789062 267.949219 230.234375 C 267.125 229.59375 266.222656 229.082031 265.246094 228.703125 C 264.078125 228.257812 262.902344 228.242188 261.71875 228.644531 C 260.691406 229.089844 259.820312 229.738281 259.097656 230.589844 C 257.910156 232.082031 256.8125 233.636719 255.800781 235.253906 C 253.652344 238.292969 251.527344 241.292969 249.40625 244.292969 C 246.992188 247.066406 244.398438 249.664062 241.628906 252.082031 C 239.023438 254.648438 236.183594 256.925781 233.117188 258.917969 C 229.878906 260.632812 226.535156 262.101562 223.082031 263.316406 C 219.773438 264.9375 216.378906 266.445312 212.941406 267.863281 C 209.503906 269.285156 205.910156 270.160156 202.3125 271.195312 C 198.714844 272.230469 194.589844 272.785156 191.003906 273.339844 C 187.429688 274.191406 183.820312 274.859375 180.179688 275.339844 C 176.503906 275.722656 172.820312 275.882812 169.03125 275.808594 C 165.246094 275.734375 161.640625 275.625 157.933594 275.441406 C 154.351562 275.65625 150.792969 275.492188 147.253906 274.941406 C 143.703125 274.117188 140.355469 272.78125 137.214844 270.933594 C 134.125 269.0625 131.378906 266.773438 128.976562 264.078125 C 127.714844 262.777344 126.542969 261.40625 125.453125 259.957031 C 124.378906 258.367188 123.175781 256.882812 121.839844 255.503906 C 121.140625 254.660156 120.292969 254.003906 119.296875 253.535156 C 118.300781 253.070312 117.253906 252.835938 116.152344 252.839844 C 115.082031 252.972656 114.066406 253.277344 113.097656 253.757812 C 112.128906 254.234375 111.265625 254.855469 110.507812 255.625 C 110.300781 255.8125 110.089844 255.984375 109.867188 256.148438 C 109.628906 256.28125 109.382812 256.398438 109.132812 256.496094 C 108.503906 256.667969 107.867188 256.78125 107.222656 256.828125 L 104.785156 257.058594 C 105.191406 255.339844 105.601562 253.457031 106.140625 251.777344 C 106.207031 251.425781 106.308594 251.078125 106.441406 250.742188 C 106.613281 250.414062 106.824219 250.109375 107.078125 249.839844 C 107.308594 249.515625 107.773438 249.242188 108.152344 248.859375 L 108.996094 247.667969 C 110.347656 246.160156 111.402344 244.472656 112.164062 242.59375 C 112.925781 240.71875 113.34375 238.769531 113.417969 236.746094 C 113.414062 234.730469 113.101562 232.761719 112.484375 230.839844 C 111.863281 228.921875 110.96875 227.144531 109.792969 225.507812 L 108.921875 224.292969 C 108.636719 224.007812 108.3125 223.777344 107.949219 223.605469 C 107.621094 223.425781 107.273438 223.308594 106.902344 223.246094 C 105.824219 223.089844 104.75 223.105469 103.675781 223.296875 C 101.730469 223.601562 99.902344 224.042969 98.101562 224.449219 L 95.371094 225.175781 C 94.417969 225.484375 93.5 225.863281 92.613281 226.320312 C 91.863281 226.707031 91.078125 227.023438 90.269531 227.265625 C 89.480469 227.417969 88.691406 227.4375 87.898438 227.324219 C 86.550781 227 85.238281 226.558594 83.964844 226.007812 L 84.503906 225.25 C 84.988281 224.5625 85.472656 223.875 85.933594 223.222656 C 86.253906 222.5625 86.671875 221.972656 87.1875 221.453125 C 87.257812 221.320312 87.34375 221.199219 87.441406 221.089844 L 88.0625 220.824219 C 88.457031 220.628906 88.863281 220.464844 89.28125 220.328125 C 90.988281 219.652344 92.730469 219.078125 94.503906 218.597656 C 96.308594 218.191406 98.109375 217.785156 100.054688 217.101562 L 101.441406 216.667969 C 101.933594 216.496094 102.417969 216.296875 102.890625 216.070312 C 103.847656 215.523438 104.683594 214.828125 105.390625 213.988281 C 106.117188 213.160156 106.664062 212.226562 107.042969 211.195312 C 107.148438 210.898438 107.234375 210.597656 107.300781 210.292969 L 107.359375 209.519531 L 107.902344 208.222656 C 108.089844 206.347656 108.21875 204.484375 108.308594 202.597656 C 108.34375 198.78125 108.089844 194.984375 107.546875 191.210938 C 107.101562 189.117188 106.175781 187.265625 104.761719 185.664062 C 103.992188 184.839844 103.089844 184.203125 102.058594 183.75 L 99.34375 182.695312 C 95.683594 181.519531 92.023438 180.882812 88.496094 179.910156 L 85.957031 179.140625 L 85.414062 178.757812 L 85.054688 178.503906 C 84.726562 178.355469 84.441406 178.148438 84.1875 177.890625 C 83.589844 177.28125 83.046875 176.621094 82.554688 175.921875 L 81.882812 174.960938 L 81.738281 174.859375 L 81.890625 174.640625 L 82.941406 173.917969 C 83.648438 173.386719 84.394531 172.921875 85.179688 172.515625 C 85.503906 172.351562 85.839844 172.230469 86.195312 172.152344 C 86.527344 172.09375 86.859375 172.113281 87.1875 172.203125 C 88.050781 172.324219 88.902344 172.496094 89.746094 172.710938 C 93.28125 173.527344 96.789062 174.761719 100.386719 175.789062 L 102.417969 176.359375 L 103.453125 176.65625 C 103.949219 176.726562 104.445312 176.714844 104.9375 176.621094 C 105.746094 176.445312 106.511719 176.152344 107.230469 175.746094 C 108.121094 175.273438 108.777344 174.582031 109.191406 173.664062 L 110.128906 170.960938 C 111.238281 167.40625 112.25 163.835938 113.285156 160.230469 C 114.320312 156.625 115.523438 153.242188 116.773438 149.789062 C 118.027344 146.335938 119.414062 142.921875 120.898438 139.523438 C 122.378906 136.125 123.550781 132.558594 125.195312 129.164062 C 126.835938 125.773438 128.0625 122.355469 129.546875 118.957031 C 131.03125 115.558594 132.851562 112.449219 134.648438 109.21875 C 135.453125 107.597656 136.382812 106.050781 137.441406 104.578125 C 138.457031 103.207031 139.722656 102.128906 141.238281 101.351562 C 142 101.085938 142.785156 100.953125 143.589844 100.953125 C 144.394531 100.953125 145.179688 101.085938 145.9375 101.351562 C 146.699219 101.621094 147.390625 102.003906 148.019531 102.507812 C 148.648438 103.011719 149.175781 103.601562 149.605469 104.285156 C 150.644531 105.566406 151.75 107.214844 152.824219 108.679688 L 156.109375 113.0625 C 158.265625 116.050781 160.421875 119.042969 162.53125 122.105469 C 164.636719 125.167969 166.507812 128.335938 168.300781 131.609375 C 169.371094 133.457031 170.824219 134.917969 172.664062 135.996094 C 174.648438 136.785156 176.683594 136.941406 178.769531 136.464844 L 189.828125 135.28125 C 193.464844 134.785156 197.121094 134.511719 200.789062 134.464844 C 202.609375 134.519531 204.414062 134.695312 206.207031 134.988281 C 207.941406 135.289062 209.730469 135.742188 211.605469 136.148438 C 215.367188 136.953125 219.171875 137.308594 223.015625 137.21875 C 225.046875 137.199219 226.996094 136.796875 228.867188 136.003906 C 230.738281 135.214844 232.386719 134.097656 233.816406 132.65625 C 235.84375 130.609375 237.164062 128.179688 237.78125 125.367188 C 238.011719 125.042969 238.546875 122.601562 237.792969 122.445312 C 237.640625 122.441406 237.5 122.464844 237.359375 122.523438 C 237.101562 122.609375 236.859375 122.726562 236.625 122.871094 C 236.164062 123.160156 235.875 123.570312 235.757812 124.101562 C 235.089844 126.707031 233.886719 129.039062 232.160156 131.101562 C 230.925781 132.328125 229.503906 133.269531 227.894531 133.929688 C 226.285156 134.585938 224.613281 134.910156 222.875 134.894531 C 219.242188 135.011719 215.640625 134.722656 212.074219 134.035156 C 210.292969 133.644531 208.441406 133.203125 206.550781 132.894531 C 204.671875 132.617188 202.785156 132.457031 200.886719 132.417969 C 197.152344 132.339844 193.425781 132.507812 189.710938 132.921875 L 178.5 134.320312 C 176.882812 134.605469 175.328125 134.40625 173.832031 133.730469 C 172.484375 132.757812 171.449219 131.519531 170.726562 130.015625 C 168.707031 126.90625 166.625 123.808594 164.457031 120.757812 C 162.289062 117.703125 160.246094 114.628906 158.085938 111.640625 L 154.894531 107.050781 C 153.785156 105.5625 152.835938 104.074219 151.546875 102.457031 C 150.183594 100.863281 148.527344 99.691406 146.570312 98.9375 C 145.554688 98.601562 144.511719 98.46875 143.441406 98.550781 C 142.371094 98.632812 141.355469 98.914062 140.402344 99.402344 C 138.691406 100.402344 137.179688 101.640625 135.863281 103.121094 C 134.550781 104.601562 133.496094 106.25 132.707031 108.066406 C 130.910156 111.296875 129.15625 114.613281 127.503906 117.945312 C 125.851562 121.277344 124.378906 124.738281 122.929688 128.160156 C 121.480469 131.585938 119.765625 134.929688 118.257812 138.363281 C 116.746094 141.796875 115.480469 145.347656 114.371094 148.902344 C 113.261719 152.460938 112.191406 156.039062 111.21875 159.636719 C 110.242188 163.230469 108.929688 166.695312 107.710938 170.175781 L 106.949219 172.78125 C 106.746094 173.09375 106.480469 173.339844 106.15625 173.523438 C 105.738281 173.875 105.28125 174.167969 104.78125 174.394531 C 104.609375 174.464844 104.433594 174.484375 104.253906 174.453125 L 103.265625 174.242188 L 101.28125 173.761719 C 97.726562 172.820312 94.167969 171.660156 90.476562 170.839844 C 89.550781 170.617188 88.648438 170.363281 87.734375 170.203125 C 87.457031 170.128906 87.175781 170.09375 86.890625 170.09375 C 86.574219 170.074219 86.261719 170.089844 85.945312 170.132812 C 85.410156 170.253906 84.890625 170.429688 84.386719 170.65625 C 83.492188 171.089844 82.636719 171.585938 81.816406 172.148438 L 80.46875 172.984375 C 79.746094 173.394531 78.898438 173.824219 78.113281 174.246094 L 77.933594 174.121094 L 79.625 176.238281 L 80.535156 177.476562 C 81.089844 178.328125 81.722656 179.117188 82.429688 179.847656 C 82.808594 180.355469 83.246094 180.808594 83.738281 181.207031 C 84.316406 181.617188 84.792969 181.628906 85.242188 181.835938 L 87.949219 182.667969 C 91.652344 183.550781 95.328125 184.089844 98.871094 184.96875 L 101.367188 186.027344 C 102.054688 186.414062 102.628906 186.929688 103.089844 187.570312 C 104.140625 188.855469 104.800781 190.316406 105.070312 191.957031 C 105.621094 195.546875 105.898438 199.160156 105.898438 202.792969 C 105.832031 204.644531 105.730469 206.472656 105.570312 208.308594 C 105.5625 209.152344 105.460938 209.984375 105.261719 210.804688 C 104.914062 211.53125 104.453125 212.183594 103.882812 212.757812 C 103.390625 213.386719 102.789062 213.882812 102.074219 214.242188 C 101.277344 214.589844 100.457031 214.878906 99.621094 215.113281 C 97.902344 215.632812 96.097656 216.039062 94.269531 216.480469 C 92.445312 216.925781 90.605469 217.304688 88.722656 217.980469 L 87.347656 218.472656 L 86.664062 218.75 C 86.484375 219.003906 86.078125 219.042969 85.855469 219.207031 C 84.957031 219.859375 84.214844 220.652344 83.625 221.589844 C 83.085938 222.277344 82.582031 222.988281 82.117188 223.726562 L 81.734375 224.265625 C 81.515625 224.617188 81.277344 224.957031 81.019531 225.28125 L 79.6875 227.160156 L 82.945312 228.214844 L 84.816406 228.78125 C 85.851562 229.140625 86.910156 229.402344 87.996094 229.5625 C 89.09375 229.722656 90.1875 229.679688 91.273438 229.441406 C 92.253906 229.160156 93.191406 228.773438 94.089844 228.285156 C 94.867188 227.898438 95.667969 227.558594 96.484375 227.269531 L 99.128906 226.589844 C 100.957031 226.144531 102.75 225.679688 104.511719 225.40625 C 105.3125 225.265625 106.113281 225.253906 106.914062 225.371094 C 107.203125 225.574219 107.167969 225.546875 107.492188 225.777344 L 108.308594 226.84375 C 109.207031 228.339844 109.859375 229.941406 110.261719 231.640625 C 110.664062 233.34375 110.800781 235.066406 110.667969 236.8125 C 110.753906 238.527344 110.539062 240.207031 110.027344 241.851562 C 109.515625 243.496094 108.738281 245 107.695312 246.371094 C 107.097656 247.015625 106.445312 247.601562 105.742188 248.136719 C 105.277344 248.496094 104.882812 248.921875 104.566406 249.417969 C 104.445312 249.550781 104.34375 249.695312 104.257812 249.851562 L 104.054688 250.140625 L 103.644531 250.71875 C 103.386719 251.621094 103.066406 252.53125 102.804688 253.433594 L 102.023438 256.300781 L 100.953125 259.878906 C 102.222656 259.691406 103.761719 259.425781 104.953125 259.347656 C 106.144531 259.265625 106.4375 259.3125 107.25 259.234375 C 108.164062 259.214844 109.0625 259.09375 109.945312 258.863281 C 110.429688 258.695312 110.886719 258.476562 111.328125 258.210938 C 111.453125 258.03125 111.632812 257.777344 111.941406 257.726562 L 112.25 257.292969 C 113.304688 256.117188 114.605469 255.375 116.152344 255.0625 C 116.933594 255.066406 117.683594 255.234375 118.390625 255.566406 C 119.101562 255.898438 119.710938 256.363281 120.214844 256.960938 C 121.441406 258.296875 122.570312 259.707031 123.601562 261.199219 C 124.730469 262.707031 125.964844 264.121094 127.304688 265.445312 C 129.792969 268.402344 132.660156 270.917969 135.917969 273 C 139.347656 274.773438 142.960938 276.011719 146.761719 276.707031 C 150.441406 277.621094 154.179688 278.148438 157.972656 278.292969 C 161.710938 278.28125 165.46875 278.167969 169.019531 277.96875 C 172.566406 277.765625 176.585938 277.894531 180.089844 277.609375 C 183.59375 277.320312 187.484375 276.328125 191.105469 275.417969 C 194.722656 274.503906 198.910156 274.320312 202.484375 273.320312 C 206.058594 272.324219 209.566406 270.953125 213.085938 269.648438 C 216.609375 268.339844 220.171875 267.28125 223.644531 265.886719 C 227.128906 264.425781 230.472656 262.683594 233.667969 260.660156 C 236.878906 258.632812 239.867188 256.320312 242.636719 253.714844 C 245.5 251.242188 248.175781 248.578125 250.664062 245.726562 C 253.054688 242.804688 255.265625 239.757812 257.414062 236.722656 C 258.488281 235.203125 259.613281 233.613281 260.53125 232.308594 C 260.980469 231.753906 261.535156 231.328125 262.1875 231.039062 C 262.773438 230.839844 263.351562 230.867188 263.914062 231.121094 C 264.648438 231.414062 265.335938 231.792969 265.976562 232.257812 C 266.746094 232.90625 267.5625 233.484375 268.429688 233.988281 C 269.460938 234.511719 270.554688 234.726562 271.710938 234.628906 C 272.734375 234.519531 273.714844 234.257812 274.652344 233.835938 L 276.238281 233.273438 C 276.769531 233.054688 277.824219 232.714844 278.628906 232.417969 L 277.117188 227.824219 L 276.863281 226.882812 L 276.691406 226.4375 C 276.640625 226.1875 276.554688 225.945312 276.445312 225.71875 C 276.277344 225.515625 276.074219 225.371094 275.832031 225.285156 L 275.550781 225.683594 C 275.269531 226.078125 275.957031 225.105469 275.882812 225.210938 L 275.664062 225.058594 L 275.027344 224.28125 L 271.167969 220.25 L 270.203125 219.246094 L 269.917969 219.039062 L 279.042969 217.683594 C 282.589844 217.101562 286.371094 216.957031 290.109375 216.183594 C 290.832031 216.132812 291.539062 216.019531 292.242188 215.84375 C 292.976562 215.601562 293.65625 215.25 294.28125 214.792969 C 294.910156 214.367188 295.4375 213.929688 295.9375 213.523438 C 296.441406 213.121094 297.785156 212.0625 298.746094 211.386719 L 296.402344 209.730469 L 295.152344 208.519531 C 294.386719 207.761719 293.523438 207.152344 292.554688 206.683594 C 292 206.441406 291.417969 206.320312 290.8125 206.320312 C 290.324219 206.292969 289.839844 206.292969 289.351562 206.316406 C 287.433594 206.363281 285.527344 206.511719 283.625 206.769531 C 281.78125 206.929688 279.9375 207.089844 278.023438 207.039062 C 277.195312 207.082031 276.386719 206.980469 275.59375 206.730469 L 274.378906 206.304688 L 273.386719 205.875 L 273.132812 205.695312 L 273.773438 204.792969 C 274.105469 204.074219 274.472656 203.375 274.875 202.695312 C 275.660156 201.433594 276.726562 200.488281 278.074219 199.859375 C 279.9375 199.027344 281.742188 198.078125 283.488281 197.019531 C 284.359375 196.363281 285.070312 195.5625 285.617188 194.617188 L 286.4375 193.460938 C 286.847656 192.882812 287.332031 192.195312 287.765625 191.582031 C 287.058594 191.15625 286.382812 190.683594 285.746094 190.152344 L 284.523438 189.285156 L 283.1875 188.34375 C 282.519531 188 281.816406 187.898438 281.074219 188.042969 C 280.347656 188.246094 279.601562 188.351562 278.847656 188.363281 C 278.164062 188.261719 278.101562 188.269531 277.980469 187.753906 C 278.019531 186.050781 278.1875 184.359375 278.484375 182.683594 C 278.769531 180.824219 278.996094 178.976562 279.148438 177.078125 C 279.402344 173.355469 279.523438 169.589844 279.421875 165.828125 C 279.324219 162.070312 279.21875 158.472656 278.734375 154.492188 C 278.246094 150.515625 277.476562 147.09375 276.671875 143.488281 C 275.867188 139.882812 275.230469 136.121094 274.546875 132.496094 L 272.164062 121.261719 C 271.386719 117.621094 270.570312 113.953125 269.546875 110.355469 C 269.265625 109.367188 268.890625 108.417969 268.425781 107.5 C 267.925781 106.613281 267.339844 105.78125 266.671875 105.011719 C 265.355469 103.429688 263.792969 102.148438 261.988281 101.15625 L 261.375 100.722656 C 261.0625 100.582031 260.738281 100.480469 260.402344 100.417969 C 259.820312 100.316406 259.242188 100.320312 258.660156 100.433594 C 257.609375 100.554688 256.597656 100.835938 255.632812 101.273438 C 254.683594 101.667969 253.785156 102.152344 252.929688 102.722656 C 252.492188 103.039062 252.074219 103.375 251.675781 103.734375 L 250.640625 104.738281 C 250.640625 104.738281 248.738281 106.8125 246.960938 109.023438 C 245.179688 111.238281 243.449219 113.375 243.449219 113.375 L 241.105469 116.003906 L 239.242188 118.101562 C 238.859375 118.644531 236.332031 121.144531 237.550781 122.332031 C 237.683594 122.507812 237.859375 122.628906 238.078125 122.691406 C 238.292969 122.753906 238.507812 122.746094 238.71875 122.667969 Z M 238.71875 122.667969 " fill-opacity="1" fill-rule="nonzero"/></g></g></g><g clip-path="url(#6b6d5933fe)"><g clip-path="url(#6e140fe17a)"><g clip-path="url(#75b9b1282c)"><path fill="#fff2ee" d="M 171.203125 245.667969 C 171.976562 246.171875 172.789062 246.617188 173.632812 246.996094 C 174.480469 247.375 175.347656 247.683594 176.242188 247.925781 C 177.136719 248.167969 178.046875 248.339844 178.96875 248.4375 C 179.890625 248.535156 180.816406 248.5625 181.742188 248.515625 C 182.667969 248.46875 183.585938 248.347656 184.492188 248.15625 C 185.398438 247.964844 186.289062 247.703125 187.15625 247.375 C 188.023438 247.042969 188.859375 246.644531 189.664062 246.183594 C 190.46875 245.71875 191.234375 245.199219 191.957031 244.613281 C 195.402344 241.707031 198.574219 238.527344 201.464844 235.070312 C 204.890625 230.765625 207.527344 230.242188 211.597656 234.585938 C 214.386719 236.964844 217.582031 238.515625 221.175781 239.242188 C 222.941406 239.730469 225.261719 238.285156 227.316406 237.675781 C 226.546875 235.183594 225.5 232.8125 224.171875 230.570312 C 223.335938 229.382812 221.097656 229.261719 219.511719 228.519531 C 218.980469 228.332031 218.472656 228.09375 217.992188 227.800781 C 217.511719 227.507812 217.066406 227.164062 216.660156 226.777344 C 216.25 226.390625 215.886719 225.964844 215.566406 225.5 C 215.246094 225.035156 214.980469 224.542969 214.765625 224.023438 C 214.546875 223.503906 214.390625 222.964844 214.285156 222.410156 C 214.183594 221.855469 214.140625 221.296875 214.15625 220.734375 C 214.171875 220.167969 214.242188 219.613281 214.375 219.0625 C 214.507812 218.515625 214.695312 217.984375 214.9375 217.476562 C 216.546875 214.171875 217.9375 210.78125 219.105469 207.296875 C 219.679688 204.882812 219.546875 200.558594 218.242188 199.800781 C 212.59375 196.765625 206.699219 194.316406 200.5625 192.449219 C 199.578125 193.074219 198.753906 193.863281 198.078125 194.8125 C 197.40625 195.765625 196.9375 196.808594 196.675781 197.945312 C 196.695312 201.25 197.554688 204.316406 199.257812 207.144531 C 203.980469 215.148438 200.9375 221.132812 194.898438 226.464844 C 188.855469 231.792969 184.261719 239.664062 174.054688 236.511719 C 173.007812 236.152344 169.957031 238.710938 169.765625 240.203125 C 169.574219 241.695312 170.921875 244.761719 171.203125 245.667969 Z M 171.203125 245.667969 " fill-opacity="1" fill-rule="nonzero"/></g></g></g><g clip-path="url(#71d243121a)"><g clip-path="url(#4feaee5c60)"><g clip-path="url(#5e6712e64e)"><path fill="#fff2ee" d="M 172.097656 245.164062 C 172.355469 244.800781 171.96875 244.582031 171.921875 244.496094 L 171.503906 243.710938 L 171.144531 242.914062 C 170.847656 242.15625 170.703125 241.363281 170.710938 240.546875 C 171 239.910156 171.445312 239.410156 172.042969 239.046875 C 172.511719 238.453125 173.074219 237.964844 173.726562 237.582031 C 174.382812 237.851562 175.054688 238.074219 175.746094 238.25 L 177.285156 238.363281 L 178.824219 238.253906 C 179.878906 238.351562 180.929688 238.316406 181.976562 238.152344 C 182.96875 237.824219 183.90625 237.386719 184.800781 236.839844 C 185.707031 236.375 186.550781 235.816406 187.335938 235.164062 C 188.117188 234.578125 188.855469 233.941406 189.550781 233.257812 C 190.328125 232.617188 191.011719 231.957031 191.691406 231.300781 L 193.328125 228.988281 L 195.675781 227.503906 C 196.238281 226.707031 197.007812 226.003906 197.605469 225.234375 C 198.203125 224.460938 198.730469 223.640625 199.320312 222.808594 C 199.96875 222.042969 200.550781 221.222656 201.058594 220.351562 C 201.53125 219.4375 201.886719 218.476562 202.121094 217.46875 C 202.425781 216.464844 202.609375 215.4375 202.675781 214.390625 C 202.570312 213.347656 202.351562 212.328125 202.027344 211.328125 C 201.742188 210.375 201.363281 209.457031 200.894531 208.574219 C 200.578125 207.644531 200.128906 206.675781 199.796875 205.84375 C 199.308594 205.117188 198.871094 204.355469 198.488281 203.566406 C 198.28125 202.710938 198.132812 201.847656 198.046875 200.976562 C 197.71875 200.144531 197.476562 199.285156 197.324219 198.402344 L 197.40625 197.753906 C 197.46875 197.621094 197.554688 197.5 197.660156 197.394531 C 197.84375 197.054688 198.066406 196.738281 198.324219 196.453125 C 198.671875 195.660156 199.082031 194.902344 199.558594 194.175781 C 199.785156 193.851562 200.320312 193.632812 200.367188 193.71875 L 200.691406 193.949219 L 203.515625 194.316406 L 206.070312 195.367188 L 208.558594 196.746094 L 211.222656 197.492188 C 211.980469 198.027344 212.878906 198.285156 213.6875 198.746094 C 214.496094 199.210938 215.199219 199.816406 215.957031 200.351562 L 217.296875 200.757812 L 217.65625 201.011719 C 217.875 201.824219 217.972656 202.65625 217.953125 203.5 C 217.945312 204.375 217.835938 205.238281 217.632812 206.09375 C 217.578125 206.960938 217.425781 207.8125 217.179688 208.644531 C 216.667969 209.371094 216.371094 210.246094 215.90625 211.054688 L 214.683594 213.550781 C 214.382812 214.484375 214.128906 215.425781 213.925781 216.378906 C 213.359375 217.261719 212.882812 218.191406 212.496094 219.167969 C 212.328125 220.257812 212.351562 221.339844 212.574219 222.421875 C 212.71875 223.542969 213.078125 224.59375 213.648438 225.566406 C 214.3125 226.449219 215.121094 227.164062 216.074219 227.71875 C 216.792969 228.46875 217.585938 229.136719 218.445312 229.71875 C 219.417969 230.03125 220.414062 230.226562 221.433594 230.3125 C 221.773438 230.492188 222.085938 230.714844 222.371094 230.976562 L 222.804688 231.28125 L 223.054688 231.460938 C 223.410156 232.234375 223.714844 233.027344 223.96875 233.84375 C 224.386719 234.625 224.753906 235.484375 225.148438 236.304688 L 225.246094 236.699219 L 224.601562 237 L 223.382812 237.496094 C 222.742188 237.820312 222.0625 237.9375 221.351562 237.847656 L 218.75 237.09375 C 217.882812 236.8125 217.042969 236.472656 216.226562 236.070312 C 215.480469 235.621094 214.769531 235.121094 214.101562 234.566406 C 213.390625 234.050781 212.730469 233.476562 212.125 232.84375 C 211.421875 232.097656 210.644531 231.4375 209.792969 230.867188 C 209.320312 230.460938 208.792969 230.15625 208.203125 229.949219 C 207.617188 229.742188 207.011719 229.652344 206.390625 229.675781 C 205.769531 229.695312 205.171875 229.832031 204.597656 230.078125 C 204.027344 230.328125 203.519531 230.671875 203.078125 231.109375 C 202.390625 231.890625 201.796875 232.734375 201.285156 233.640625 C 200.722656 234.433594 200.214844 235.160156 199.460938 235.765625 C 198.707031 236.371094 198.230469 237.121094 197.585938 237.800781 C 196.941406 238.484375 196.167969 238.96875 195.402344 239.511719 L 193.386719 241.449219 L 191.367188 243.382812 C 190.683594 243.875 189.964844 244.308594 189.207031 244.679688 C 188.53125 245.253906 187.816406 245.78125 187.066406 246.253906 C 186.199219 246.488281 185.316406 246.664062 184.425781 246.773438 C 183.578125 247.007812 182.71875 247.175781 181.847656 247.285156 C 180.964844 247.230469 180.089844 247.117188 179.222656 246.945312 C 178.347656 246.867188 177.480469 246.742188 176.621094 246.570312 C 175.78125 246.355469 174.953125 246.097656 174.140625 245.792969 C 173.65625 245.402344 173.113281 245.125 172.507812 244.964844 C 172.507812 244.964844 172.003906 244.605469 171.542969 245.257812 L 171.339844 245.546875 C 171.1875 245.765625 171.058594 245.945312 170.957031 246.089844 C 170.726562 246.414062 170.890625 246.640625 171 246.71875 C 171.652344 247.144531 172.34375 247.488281 173.078125 247.753906 C 174.007812 248.15625 174.964844 248.488281 175.945312 248.75 C 176.917969 248.945312 177.898438 249.058594 178.890625 249.097656 C 179.871094 249.257812 180.855469 249.34375 181.851562 249.347656 C 182.851562 249.390625 183.851562 249.355469 184.84375 249.242188 C 185.824219 248.96875 186.785156 248.632812 187.71875 248.234375 C 188.699219 247.929688 189.648438 247.550781 190.574219 247.109375 C 191.410156 246.535156 192.1875 245.894531 192.910156 245.179688 L 194.988281 243.234375 L 197.140625 241.339844 C 197.703125 240.542969 198.238281 239.785156 198.800781 238.988281 C 199.363281 238.191406 200.238281 237.726562 200.917969 237.066406 C 201.597656 236.410156 202.285156 235.59375 202.878906 234.984375 C 203.363281 234.265625 203.917969 233.609375 204.542969 233.011719 C 205.136719 232.605469 205.789062 232.417969 206.507812 232.453125 C 207.179688 232.429688 207.792969 232.609375 208.34375 232.992188 C 209.09375 233.382812 209.777344 233.871094 210.398438 234.445312 C 211.007812 235.277344 211.695312 236.035156 212.46875 236.71875 C 213.34375 237.21875 214.261719 237.632812 215.214844 237.957031 L 218.035156 238.867188 L 220.660156 240.125 C 221.875 240.417969 223.066406 240.335938 224.234375 239.890625 C 224.679688 239.679688 225.101562 239.4375 225.507812 239.160156 L 226.144531 238.796875 C 226.441406 238.613281 226.75 238.453125 227.078125 238.320312 L 228.730469 237.96875 L 228.285156 236.839844 L 227.917969 235.445312 L 226.535156 232.890625 C 226.175781 231.949219 225.726562 231.054688 225.1875 230.203125 C 225.019531 229.929688 224.816406 229.675781 224.585938 229.453125 C 224.359375 229.238281 224.105469 229.058594 223.828125 228.917969 C 223.351562 228.652344 222.847656 228.445312 222.324219 228.289062 C 221.5 228.007812 220.707031 227.648438 219.953125 227.207031 C 219.203125 226.8125 218.519531 226.328125 217.898438 225.753906 C 217.121094 225.449219 216.480469 224.964844 215.980469 224.296875 C 215.476562 223.628906 215.1875 222.878906 215.109375 222.046875 C 215.222656 221.214844 215.445312 220.414062 215.78125 219.644531 C 215.777344 218.78125 215.878906 217.929688 216.074219 217.085938 C 216.40625 216.238281 216.835938 215.402344 217.203125 214.574219 L 218.863281 212.226562 C 219.148438 211.289062 219.433594 210.351562 219.648438 209.363281 C 219.90625 208.394531 220.078125 207.414062 220.160156 206.417969 C 220.460938 205.425781 220.703125 204.421875 220.886719 203.402344 C 220.699219 202.332031 220.355469 201.3125 219.859375 200.34375 C 219.789062 200.050781 219.675781 199.773438 219.527344 199.511719 C 219.320312 199.191406 219.0625 198.921875 218.753906 198.695312 L 217.492188 197.804688 L 214.8125 196.773438 L 212.46875 195.117188 L 209.628906 194.464844 L 207.089844 193.160156 L 204.339844 192.460938 L 201.777344 191.191406 L 201.378906 190.910156 L 200.734375 190.832031 C 200.316406 190.855469 199.9375 190.984375 199.59375 191.21875 C 199.132812 191.671875 198.765625 192.191406 198.492188 192.773438 C 197.824219 193.53125 197.246094 194.351562 196.753906 195.234375 C 196.382812 195.65625 196.058594 196.113281 195.78125 196.605469 C 195.636719 196.925781 195.546875 197.257812 195.507812 197.605469 L 195.386719 198.390625 C 195.441406 199.414062 195.570312 200.425781 195.777344 201.429688 C 196.03125 202.414062 196.34375 203.375 196.714844 204.316406 C 197.191406 205.195312 197.734375 206.03125 198.34375 206.828125 C 198.8125 207.699219 199.21875 208.421875 199.585938 209.277344 C 199.847656 210.117188 200.015625 210.976562 200.089844 211.855469 C 200.257812 212.660156 200.332031 213.472656 200.3125 214.292969 C 200.492188 215.128906 200.5625 215.972656 200.523438 216.828125 C 200.207031 217.636719 199.796875 218.394531 199.289062 219.101562 C 198.96875 219.929688 198.585938 220.722656 198.144531 221.492188 C 197.632812 222.214844 197.011719 222.859375 196.285156 223.429688 C 195.773438 224.152344 195.261719 224.875 194.4375 225.433594 C 193.609375 225.988281 193 226.695312 192.355469 227.378906 L 190.3125 229.351562 C 189.59375 229.980469 188.867188 230.550781 188.164062 231.085938 C 187.488281 231.691406 186.78125 232.257812 186.042969 232.785156 C 185.363281 233.304688 184.648438 233.777344 183.90625 234.203125 C 183.207031 234.734375 182.460938 235.183594 181.660156 235.542969 C 180.824219 235.707031 179.980469 235.78125 179.128906 235.757812 L 177.859375 235.566406 L 176.628906 235.238281 C 175.945312 235.136719 175.507812 234.988281 174.714844 234.808594 C 174.207031 234.6875 173.703125 234.710938 173.207031 234.878906 C 172.125 235.351562 171.191406 236.03125 170.410156 236.917969 C 170.046875 237.347656 169.722656 237.804688 169.441406 238.292969 C 169.21875 238.53125 169.03125 238.796875 168.878906 239.085938 C 168.730469 239.234375 168.609375 239.40625 168.519531 239.59375 C 168.390625 239.773438 168.339844 239.847656 168.445312 240.082031 C 168.472656 240.679688 168.585938 241.265625 168.773438 241.835938 C 168.921875 242.347656 169.113281 242.84375 169.34375 243.320312 L 169.5625 244.234375 L 169.777344 244.929688 C 169.777344 244.929688 169.839844 245.300781 170.207031 245.234375 C 170.578125 245.171875 170.675781 245.566406 171.621094 245.148438 C 171.78125 245.179688 171.9375 245.183594 172.097656 245.164062 Z M 172.097656 245.164062 " fill-opacity="1" fill-rule="nonzero"/></g></g></g><g clip-path="url(#6c0d6581f5)"><g clip-path="url(#f75e8a4b8b)"><g clip-path="url(#227f6624af)"><path fill="#fff2ee" d="M 244.238281 179.945312 C 240.726562 180.933594 237.210938 181.160156 237.015625 182.050781 C 236.78125 183.277344 236.777344 184.507812 236.996094 185.738281 C 237.214844 186.96875 237.648438 188.121094 238.292969 189.191406 C 238.890625 190.101562 243.699219 189.652344 243.945312 188.847656 C 244.507812 185.894531 244.605469 182.925781 244.238281 179.945312 Z M 244.238281 179.945312 " fill-opacity="1" fill-rule="nonzero"/></g></g></g><g clip-path="url(#d503d40cb5)"><g clip-path="url(#9b6a7f1843)"><g clip-path="url(#222b35273d)"><path fill="#fff2ee" d="M 243.214844 180.089844 C 242.808594 180.128906 243.214844 180.089844 243.214844 180.089844 L 243.433594 180.242188 L 243.40625 180.660156 L 243.101562 181.09375 L 243.460938 181.347656 L 243.15625 181.78125 L 243.550781 182.0625 L 243.21875 182.53125 L 243.378906 182.917969 L 243.417969 183.324219 L 243.488281 183.753906 L 243.261719 184.078125 L 243.730469 184.410156 L 243.039062 185.386719 L 243.433594 185.667969 L 243.535156 186.0625 L 243.304688 186.386719 L 243.125 186.640625 L 242.894531 186.96875 L 243.183594 187.171875 L 243.28125 187.566406 C 243.261719 187.660156 243.207031 187.730469 243.128906 187.785156 C 243.226562 187.800781 243.296875 187.851562 243.34375 187.9375 C 243.34375 187.9375 243.164062 187.808594 243.09375 187.757812 L 243.191406 188.152344 L 242.832031 187.898438 C 242.832031 187.898438 242.675781 188.117188 242.574219 188.261719 L 242.070312 187.902344 L 241.6875 188.445312 L 241.363281 188.214844 L 240.929688 187.910156 L 240.648438 188.308594 L 240.359375 188.105469 L 240 187.847656 L 239.640625 188.355469 C 239.722656 188.265625 239.789062 188.171875 239.847656 188.066406 L 239.59375 187.886719 L 239.160156 187.582031 C 239.269531 187.386719 239.398438 187.207031 239.542969 187.039062 L 239.21875 186.808594 L 239.21875 186.429688 L 238.785156 186.121094 L 239.09375 185.6875 L 238.660156 185.382812 L 238.863281 185.09375 L 239.144531 184.695312 L 238.785156 184.441406 L 239.015625 184.117188 L 238.917969 183.71875 L 238.664062 183.542969 L 238.636719 183.195312 L 238.925781 183.402344 C 238.996094 183.324219 239.058594 183.242188 239.105469 183.148438 L 239.4375 182.679688 L 239.84375 182.640625 L 240.214844 182.574219 L 240.644531 182.882812 L 241.039062 182.78125 L 241.425781 182.621094 L 241.785156 182.875 L 242.167969 182.332031 L 242.53125 182.585938 L 242.785156 182.226562 L 243.21875 182.53125 L 243.628906 182.332031 L 243.859375 182.007812 C 243.859375 182.007812 244.148438 182.210938 244.011719 181.792969 C 243.878906 181.371094 244.011719 181.792969 243.914062 181.015625 L 243.8125 180.621094 L 243.648438 180.015625 L 243.441406 179.542969 C 243.441406 179.542969 243.441406 179.542969 243.261719 179.796875 L 242.902344 179.921875 L 242.671875 180.246094 L 242.347656 180.015625 L 241.988281 179.222656 L 241.734375 179.582031 L 241.410156 179.355469 L 241.152344 179.714844 L 240.734375 179.851562 L 240.445312 179.648438 L 240.136719 180.082031 L 239.777344 179.828125 L 239.453125 179.597656 L 239.171875 179.996094 L 238.773438 179.714844 L 238.242188 179.933594 C 238.027344 180.0625 237.832031 180.210938 237.652344 180.382812 C 237.363281 180.402344 237.089844 180.480469 236.835938 180.621094 C 236.761719 180.714844 236.691406 180.808594 236.632812 180.910156 C 236.609375 181.046875 236.601562 181.1875 236.605469 181.328125 L 236.699219 181.882812 C 236.546875 182.097656 236.445312 182.242188 236.34375 182.386719 L 236.269531 182.878906 L 236.773438 183.234375 L 236.414062 183.742188 L 236.882812 184.070312 L 236.894531 184.515625 L 236.90625 184.957031 L 236.601562 185.390625 L 236.648438 185.859375 L 237.082031 186.164062 L 237.277344 186.574219 L 236.84375 187.1875 L 237.347656 187.546875 L 237.519531 187.992188 C 237.386719 188.132812 237.277344 188.289062 237.1875 188.460938 L 237.871094 188.945312 L 238.304688 189.253906 L 238.636719 190.082031 C 238.933594 190.042969 239.210938 189.953125 239.476562 189.8125 L 239.945312 190.144531 C 239.945312 190.144531 240.148438 189.851562 240.441406 189.898438 L 240.949219 190.253906 L 241.332031 189.710938 L 241.765625 190.019531 L 242.046875 189.621094 L 242.515625 189.953125 L 242.820312 189.519531 L 243.242188 189.382812 C 243.417969 189.566406 243.621094 189.710938 243.855469 189.816406 C 244.101562 189.71875 244.332031 189.59375 244.550781 189.441406 C 244.75 189.273438 244.894531 189.066406 244.988281 188.828125 C 245.035156 188.539062 245.015625 188.257812 244.9375 187.976562 C 245.066406 187.816406 245.1875 187.648438 245.296875 187.472656 C 245.425781 187.328125 245.539062 187.171875 245.628906 187 L 245.882812 186.640625 L 245.34375 186.257812 L 245.675781 185.789062 L 245.40625 185.328125 L 245.664062 184.964844 L 245.527344 184.542969 L 245.488281 184.136719 L 245.695312 183.847656 L 246 183.414062 L 246.027344 183 L 245.988281 182.59375 L 245.519531 182.261719 L 245.777344 181.898438 L 245.75 181.554688 L 245.550781 181.144531 L 245.808594 180.78125 L 245.375 180.476562 L 245.554688 180.222656 C 245.554688 180.222656 245.707031 180.007812 244.136719 180.089844 Z M 243.214844 180.089844 " fill-opacity="1" fill-rule="nonzero"/></g></g></g><g clip-path="url(#846868465f)"><g clip-path="url(#fd8fc27fe6)"><g clip-path="url(#15b33bce64)"><path fill="#fff2ee" d="M 173.558594 187.34375 C 177.230469 186.359375 180.707031 186.109375 180.878906 185.253906 C 181.242188 182.644531 180.832031 180.167969 179.648438 177.820312 C 179.285156 177.183594 174.457031 177.511719 173.972656 178.578125 C 172.972656 180.527344 173.628906 183.269531 173.558594 187.34375 Z M 173.558594 187.34375 " fill-opacity="1" fill-rule="nonzero"/></g></g></g><g clip-path="url(#62053539aa)"><g clip-path="url(#05a0809bc0)"><g clip-path="url(#91f70e370f)"><path fill="#fff2ee" d="M 174.542969 187.335938 C 174.921875 187.332031 174.542969 187.335938 174.542969 187.335938 L 174.324219 187.179688 L 174.347656 186.765625 L 174.886719 186.003906 L 174.527344 185.75 L 174.832031 185.316406 L 174.4375 185.035156 L 174.769531 184.566406 L 174.632812 184.144531 L 174.597656 183.738281 L 174.523438 183.308594 L 174.753906 182.980469 L 174.246094 182.625 L 174.605469 182.117188 L 174.210938 181.839844 L 174.109375 181.441406 L 174.339844 181.117188 L 174.703125 180.453125 L 174.90625 180.164062 L 174.78125 179.804688 L 174.71875 179.433594 C 174.71875 179.433594 174.71875 179.433594 174.902344 179.5625 L 174.71875 179.433594 L 174.9375 179.585938 C 174.9375 179.585938 175.066406 179.40625 175.167969 179.261719 L 175.5625 179.542969 C 175.621094 179.421875 175.699219 179.3125 175.792969 179.214844 L 176.261719 179.546875 L 176.644531 179.003906 L 176.96875 179.234375 L 177.042969 179.285156 L 177.324219 178.886719 L 177.613281 179.089844 L 177.972656 179.347656 C 178.101562 179.164062 178.175781 179.058594 178.304688 178.875 C 178.304688 178.875 178.304688 178.875 178.175781 179.058594 C 178.097656 179.144531 178.027344 179.242188 177.972656 179.347656 L 178.070312 179.742188 L 178.503906 180.046875 L 178.121094 180.589844 L 178.445312 180.820312 L 178.472656 181.164062 L 178.90625 181.46875 L 178.570312 181.941406 L 179.039062 182.273438 L 178.835938 182.5625 L 178.554688 182.957031 L 178.878906 183.1875 L 178.648438 183.511719 L 178.75 183.910156 L 178.871094 184.269531 C 178.871094 184.269531 178.871094 184.269531 179.054688 184.394531 L 178.730469 184.167969 L 178.523438 184.457031 L 178.21875 184.890625 L 177.8125 184.929688 L 177.378906 185.003906 L 176.984375 184.722656 L 176.589844 184.820312 L 176.203125 184.984375 L 175.84375 184.730469 L 175.460938 185.269531 L 175.097656 185.015625 L 174.84375 185.378906 L 174.445312 185.097656 L 174.0625 185.257812 L 173.652344 185.457031 C 173.652344 185.457031 173.398438 185.277344 173.496094 185.675781 C 173.597656 186.070312 173.496094 185.675781 173.574219 186.484375 L 173.660156 186.820312 L 173.828125 187.425781 L 174.035156 187.898438 C 174.035156 187.898438 174.164062 187.71875 174.214844 187.644531 L 174.609375 187.542969 L 174.839844 187.21875 L 175.164062 187.449219 L 175.558594 187.730469 L 175.816406 187.367188 L 176.175781 187.621094 L 176.433594 187.261719 L 176.851562 187.125 L 177.234375 187.121094 L 177.539062 186.6875 L 177.9375 186.96875 L 178.390625 187.019531 L 178.644531 186.65625 L 179.042969 186.9375 L 179.511719 186.726562 C 179.75 186.621094 179.96875 186.488281 180.175781 186.328125 C 180.460938 186.292969 180.730469 186.214844 180.992188 186.089844 C 181.082031 185.992188 181.15625 185.882812 181.222656 185.765625 C 181.222656 185.765625 181.222656 185.765625 181.21875 185.386719 L 181.121094 184.609375 C 181.226562 184.414062 181.355469 184.234375 181.503906 184.066406 L 181.734375 183.742188 L 181.191406 183.359375 L 181.550781 182.851562 L 181.082031 182.523438 L 181.070312 182.078125 L 181.09375 181.664062 L 181.402344 181.230469 L 181.351562 180.761719 L 181.390625 180.785156 L 181.101562 180.582031 L 181.535156 179.96875 L 180.996094 179.585938 L 180.859375 179.164062 L 181.21875 178.660156 C 181 178.558594 180.804688 178.425781 180.640625 178.25 L 180.101562 177.867188 C 180.066406 177.570312 179.976562 177.289062 179.828125 177.027344 C 179.53125 177.035156 179.246094 177.105469 178.976562 177.238281 L 178.402344 176.828125 C 178.238281 176.902344 178.082031 176.992188 177.9375 177.097656 L 177.289062 176.640625 L 176.90625 177.183594 L 176.472656 176.875 L 176.167969 177.3125 L 175.664062 176.953125 L 175.355469 177.386719 C 175.183594 177.394531 175.019531 177.441406 174.875 177.535156 C 174.71875 177.371094 174.535156 177.246094 174.332031 177.152344 C 174.128906 177.226562 173.933594 177.324219 173.746094 177.445312 C 173.574219 177.628906 173.429688 177.832031 173.3125 178.058594 C 173.246094 178.34375 173.222656 178.632812 173.238281 178.929688 C 173.109375 179.109375 172.984375 179.289062 172.90625 179.398438 C 172.765625 179.550781 172.648438 179.71875 172.546875 179.902344 L 172.265625 180.300781 L 172.808594 180.683594 L 172.476562 181.152344 L 172.746094 181.617188 L 172.488281 181.976562 L 172.660156 182.421875 L 172.671875 182.867188 L 172.648438 183.28125 L 172.339844 183.714844 L 172.316406 184.132812 L 172.351562 184.539062 L 172.785156 184.84375 L 172.53125 185.207031 L 172.222656 185.640625 L 172.324219 186.035156 L 172.457031 186.457031 L 172.226562 186.78125 L 172.625 187.0625 L 172.445312 187.316406 C 172.445312 187.316406 172.292969 187.53125 173.875 187.511719 Z M 174.542969 187.335938 " fill-opacity="1" fill-rule="nonzero"/></g></g></g></svg>